<?xml version="1.0" standalone="no"?>
<!DOCTYPE svg PUBLIC "-//W3C//DTD SVG 20010904//EN"
 "http://www.w3.org/TR/2001/REC-SVG-20010904/DTD/svg10.dtd">
<svg version="1.0" xmlns="http://www.w3.org/2000/svg"
 width="16.000000pt" height="16.000000pt" viewBox="0 0 16.000000 16.000000"
 preserveAspectRatio="xMidYMid meet">
<metadata>
Created by potrace 1.11, written by Peter Selinger 2001-2013
</metadata>
<g transform="translate(0.000000,16.000000) scale(0.000845,-0.000845)"
fill="#000000" stroke="none">
<path d="M12 18928 c-15 -15 -17 -3844 -3 -3867 6 -10 15 4 31 48 13 34 24 60
26 59 1 -2 -8 -41 -22 -86 -56 -196 -53 -403 11 -581 8 -24 14 -46 11 -48 -2
-2 -12 20 -22 49 -11 29 -24 52 -29 51 -15 -4 -19 -14522 -4 -14539 16 -19
18898 -21 18917 -2 9 9 12 1353 12 5988 0 3286 -3 5986 -7 5998 -8 30 -22 10
-24 -33 0 -16 -3 -25 -5 -18 -3 6 2 71 11 145 8 73 18 216 21 318 6 179 4 204
-31 493 -5 39 -4 40 6 13 9 -21 14 -25 20 -15 5 8 9 1348 9 3015 0 2320 -3
3003 -12 3012 -18 18 -18898 18 -18916 0z m528 -3121 c0 -2 -12 -14 -27 -28
l-28 -24 24 28 c23 25 31 32 31 24z m6620 -27 c8 -5 11 -10 5 -10 -5 0 -17 5
-25 10 -8 5 -10 10 -5 10 6 0 17 -5 25 -10z m50 -20 c8 -5 11 -10 5 -10 -5 0
-17 5 -25 10 -8 5 -10 10 -5 10 6 0 17 -5 25 -10z m-6791 -72 c-33 -35 -86
-93 -116 -130 -30 -38 -57 -68 -60 -68 -8 0 73 99 148 183 39 42 75 77 80 77
5 0 -18 -28 -52 -62z m6881 37 c14 -8 21 -14 15 -14 -5 0 -21 6 -35 14 -14 8
-20 14 -15 14 6 0 21 -6 35 -14z m8830 -15 c18 -12 2 -12 -25 0 -13 6 -15 9
-5 9 8 0 22 -4 30 -9z m-8750 -20 c19 -11 31 -19 25 -19 -5 0 -26 8 -45 19
-19 11 -30 19 -25 19 6 0 26 -8 45 -19z m5149 17 c-40 -30 -111 -78 -104 -69
17 19 89 71 99 72 5 0 7 -1 5 -3z m-5084 -55 c-3 -3 -11 0 -18 7 -9 10 -8 11
6 5 10 -3 15 -9 12 -12z m8835 3 c33 -19 21 -19 -21 0 -19 8 -27 14 -19 14 8
0 26 -6 40 -14z m-8750 -35 c33 -17 60 -32 60 -35 0 -7 -27 5 -84 36 -68 38
-51 37 24 -1z m4876 1 c-4 -5 -30 -28 -59 -51 l-52 -42 55 51 c55 51 66 59 56
42z m3964 -1 c8 -5 11 -10 5 -10 -5 0 -17 5 -25 10 -8 5 -10 10 -5 10 6 0 17
-5 25 -10z m50 -20 c8 -5 11 -10 5 -10 -5 0 -17 5 -25 10 -8 5 -10 10 -5 10 6
0 17 -5 25 -10z m-8795 -38 c-3 -3 -11 0 -18 7 -9 10 -8 11 6 5 10 -3 15 -9
12 -12z m8905 -7 c14 -8 21 -14 15 -14 -5 0 -21 6 -35 14 -14 8 -20 14 -15 14
6 0 21 -6 35 -14z m-8830 -31 c0 -2 -13 2 -30 11 -16 9 -30 18 -30 21 0 2 14
-2 30 -11 17 -9 30 -18 30 -21z m70 -40 c0 -2 -13 2 -30 11 -16 9 -30 18 -30
21 0 2 14 -2 30 -11 17 -9 30 -18 30 -21z m4520 32 c0 -2 -8 -10 -17 -17 -16
-13 -17 -12 -4 4 13 16 21 21 21 13z m4410 -36 c22 -11 40 -23 40 -25 0 -5
-79 32 -89 41 -11 10 14 2 49 -16z m-16488 -42 c-16 -24 -52 -86 -81 -138 -28
-52 -51 -91 -51 -86 0 23 142 266 156 266 3 0 -8 -19 -24 -42z m7663 -18 c3
-5 -10 -1 -29 11 -20 12 -36 23 -36 25 0 7 58 -25 65 -36z m4299 -25 c-26 -30
-50 -55 -52 -55 -6 0 18 29 62 78 48 52 41 37 -10 -23z m-4211 -34 c7 -8 -7
-2 -30 14 -24 15 -43 30 -43 32 0 7 61 -31 73 -46z m9077 -56 c0 -3 -22 6 -50
20 -27 14 -50 28 -50 30 0 3 23 -6 50 -20 28 -14 50 -28 50 -30z m-8932 -49
c7 -12 -95 59 -118 82 -8 8 13 -4 48 -28 35 -24 66 -48 70 -54z m4012 70 c0
-2 -8 -10 -17 -17 -16 -13 -17 -12 -4 4 13 16 21 21 21 13z m4990 -62 c0 -2
-13 2 -30 11 -16 9 -30 18 -30 21 0 2 14 -2 30 -11 17 -9 30 -18 30 -21z
m-5052 -24 c-32 -51 -48 -68 -27 -27 15 28 49 77 54 77 2 0 -10 -22 -27 -50z
m5102 -6 c0 -2 -9 0 -20 6 -11 6 -20 13 -20 16 0 2 9 0 20 -6 11 -6 20 -13 20
-16z m-8940 -71 c0 -3 -22 14 -50 37 -27 23 -50 44 -50 47 0 3 23 -14 50 -37
28 -23 50 -44 50 -47z m9010 31 c0 -2 -9 0 -20 6 -11 6 -20 13 -20 16 0 2 9 0
20 -6 11 -6 20 -13 20 -16z m121 -76 l24 -20 -31 17 c-17 10 -41 26 -55 37
l-24 20 31 -17 c17 -10 41 -26 55 -37z m-9091 17 c13 -14 21 -25 18 -25 -2 0
-15 11 -28 25 -13 14 -21 25 -18 25 2 0 15 -11 28 -25z m3721 -42 c-12 -20
-14 -14 -5 12 4 9 9 14 11 11 3 -2 0 -13 -6 -23z m-3636 -35 l50 -52 -51 44
c-44 38 -63 60 -51 60 1 0 25 -23 52 -52z m9095 1 l25 -21 -33 19 c-19 10 -39
24 -45 32 -10 12 -9 12 8 3 11 -6 31 -21 45 -33z m51 -36 c13 -16 12 -17 -3
-4 -17 13 -22 21 -14 21 2 0 10 -8 17 -17z m134 -98 c34 -30 14 -18 -63 38
-28 22 -52 41 -52 43 0 7 78 -49 115 -81z m-5688 23 c-3 -8 -6 -5 -6 6 -1 11
2 17 5 13 3 -3 4 -12 1 -19z m-3338 -158 c62 -76 20 -34 -79 80 -55 64 -63 75
-23 35 32 -34 78 -85 102 -115z m3328 108 c-3 -8 -6 -5 -6 6 -1 11 2 17 5 13
3 -3 4 -12 1 -19z m5928 -163 c48 -45 49 -46 5 -10 -95 77 -200 167 -200 172
0 6 134 -105 195 -162z m-5938 8 c-2 -21 -4 -4 -4 37 0 41 2 58 4 38 2 -21 2
-55 0 -75z m-3218 -78 c47 -65 31 -56 -20 13 -23 31 -36 52 -28 45 8 -7 30
-33 48 -58z m3228 -17 c-3 -7 -5 -2 -5 12 0 14 2 19 5 13 2 -7 2 -19 0 -25z
m6098 -70 c113 -121 97 -116 -25 9 -52 53 -77 82 -55 65 22 -16 58 -50 80 -74z
m-6088 20 c-3 -8 -6 -5 -6 6 -1 11 2 17 5 13 3 -3 4 -12 1 -19z m-3141 -70
c25 -47 9 -31 -30 30 -25 38 -29 47 -11 27 14 -16 33 -42 41 -57z m3174 -33
c0 -5 -5 -3 -10 5 -5 8 -10 20 -10 25 0 6 5 3 10 -5 5 -8 10 -19 10 -25z
m-3130 -36 c15 -28 5 -23 -15 7 -9 15 -12 23 -6 20 6 -4 16 -16 21 -27z m9416
-141 c25 -32 43 -58 41 -58 -3 0 -29 30 -60 68 -30 37 -65 79 -78 93 -13 14
-30 34 -38 45 -23 33 87 -88 135 -148z m-6256 97 c0 -5 -5 -3 -10 5 -5 8 -10
20 -10 25 0 6 5 3 10 -5 5 -8 10 -19 10 -25z m-3098 -60 c28 -55 8 -32 -26 30
-15 28 -20 41 -11 30 9 -11 26 -38 37 -60z m-8798 28 c9 -18 14 -33 12 -33 -6
0 -36 55 -36 66 0 11 5 3 24 -33z m11920 -20 c9 -18 14 -33 12 -33 -6 0 -36
55 -36 66 0 11 5 3 24 -33z m-11875 -65 c12 -21 20 -38 18 -38 -7 0 -47 65
-47 75 0 10 1 8 29 -37z m11911 2 c6 -11 8 -20 6 -20 -3 0 -10 9 -16 20 -6 11
-8 20 -6 20 3 0 10 -9 16 -20z m-3089 -71 c22 -45 39 -83 37 -85 -2 -2 -23 35
-46 81 -23 47 -40 85 -37 85 3 0 23 -36 46 -81z m9369 -19 c17 -22 29 -40 27
-40 -3 0 -20 18 -37 40 -17 22 -29 40 -27 40 3 0 20 -18 37 -40z m-6225 4 c9
-15 12 -23 6 -20 -11 7 -35 46 -28 46 3 0 12 -12 22 -26z m-11875 -54 c12 -16
19 -30 16 -30 -2 0 -14 14 -26 30 -12 17 -19 30 -16 30 2 0 14 -13 26 -30z
m18173 -49 c27 -46 14 -38 -18 12 -16 23 -22 37 -14 30 8 -6 22 -25 32 -42z
m-6088 -146 c33 -33 87 -85 120 -114 44 -39 48 -45 15 -20 -59 45 -215 200
-269 269 -40 51 -39 50 15 -10 33 -36 86 -92 119 -125z m-12035 130 c13 -14
21 -25 18 -25 -2 0 -15 11 -28 25 -13 14 -21 25 -18 25 2 0 15 -11 28 -25z
m8759 -40 c0 -5 -6 1 -14 15 -8 14 -14 30 -14 35 0 6 6 -1 14 -15 8 -14 14
-29 14 -35z m9411 -16 c15 -28 5 -23 -15 7 -9 15 -12 23 -6 20 6 -4 16 -16 21
-27z m-17920 -193 c58 -52 59 -53 10 -15 -67 53 -230 209 -230 219 0 5 35 -27
78 -69 42 -42 106 -103 142 -135z m8530 159 c0 -5 -5 -3 -10 5 -5 8 -10 20
-10 25 0 6 5 3 10 -5 5 -8 10 -19 10 -25z m9441 -50 l10 -20 -16 20 c-9 11
-21 29 -26 40 l-10 20 16 -20 c9 -11 21 -29 26 -40z m-9401 -50 c0 -5 -5 -3
-10 5 -5 8 -10 20 -10 25 0 6 5 3 10 -5 5 -8 10 -19 10 -25z m9430 5 c6 -11 8
-20 6 -20 -3 0 -10 9 -16 20 -6 11 -8 20 -6 20 3 0 10 -9 16 -20z m-9391 -120
c0 -8 -7 1 -14 20 -18 46 -17 64 0 25 8 -16 14 -37 14 -45z m9436 40 c9 -16
13 -30 11 -30 -3 0 -12 14 -21 30 -9 17 -13 30 -11 30 3 0 12 -13 21 -30z
m-6054 -47 c13 -16 12 -17 -3 -4 -17 13 -22 21 -14 21 2 0 10 -8 17 -17z
m6083 -9 c3 -8 2 -12 -4 -9 -6 3 -10 10 -10 16 0 14 7 11 14 -7z m-2684 -25
l25 -21 -27 16 c-25 14 -181 16 -1700 19 l-1673 2 1675 2 1675 3 25 -21z
m-9079 -36 c80 -60 198 -171 251 -237 23 -28 4 -12 -41 37 -84 89 -198 187
-261 226 -19 11 -30 21 -23 21 6 0 40 -21 74 -47z m11794 6 c9 -17 15 -33 13
-35 -3 -2 -12 12 -21 31 -21 43 -13 47 8 4z m-2664 -6 c13 -16 12 -17 -3 -4
-17 13 -22 21 -14 21 2 0 10 -8 17 -17z m198 -148 c95 -80 237 -225 290 -295
26 -36 23 -34 -14 10 -92 106 -271 276 -363 344 -51 38 -92 71 -92 73 0 8 97
-63 179 -132z m-6992 83 c-3 -8 -6 -5 -6 6 -1 11 2 17 5 13 3 -3 4 -12 1 -19z
m9512 -53 c0 -5 -6 1 -14 15 -8 14 -14 30 -14 35 0 6 6 -1 14 -15 8 -14 14
-29 14 -35z m15 -31 c3 -8 2 -12 -4 -9 -6 3 -10 10 -10 16 0 14 7 11 14 -7z
m30 -74 c5 -17 4 -20 -2 -10 -5 8 -13 26 -16 40 -5 17 -4 20 2 10 5 -8 13 -26
16 -40z m-9517 -2 c-3 -8 -6 -5 -6 6 -1 11 2 17 5 13 3 -3 4 -12 1 -19z m10
-40 c-3 -8 -6 -5 -6 6 -1 11 2 17 5 13 3 -3 4 -12 1 -19z m9533 -23 c0 -5 -5
-3 -10 5 -5 8 -10 20 -10 25 0 6 5 3 10 -5 5 -8 10 -19 10 -25z m-11609 -22
c13 -16 12 -17 -3 -4 -17 13 -22 21 -14 21 2 0 10 -8 17 -17z m2086 -5 c-3 -8
-6 -5 -6 6 -1 11 2 17 5 13 3 -3 4 -12 1 -19z m-2022 -92 l17 -31 -20 24 c-11
14 -27 38 -37 55 l-17 31 20 -24 c11 -14 27 -38 37 -55z m2032 42 c-3 -8 -6
-5 -6 6 -1 11 2 17 5 13 3 -3 4 -12 1 -19z m10 -65 c-3 -10 -5 -4 -5 12 0 17
2 24 5 18 2 -7 2 -21 0 -30z m10 -65 c-3 -7 -5 -2 -5 12 0 14 2 19 5 13 2 -7
2 -19 0 -25z m7302 -110 c47 -86 32 -69 -29 33 -28 46 -40 72 -28 57 13 -15
38 -55 57 -90z m-7292 40 c-3 -7 -5 -2 -5 12 0 14 2 19 5 13 2 -7 2 -19 0 -25z
m-1968 -33 c0 -5 -6 1 -14 15 -8 14 -14 30 -14 35 0 6 6 -1 14 -15 8 -14 14
-29 14 -35z m11548 -17 c-3 -8 -6 -5 -6 6 -1 11 2 17 5 13 3 -3 4 -12 1 -19z
m-9570 -35 c-3 -10 -5 -2 -5 17 0 19 2 27 5 18 2 -10 2 -26 0 -35z m9591 -48
c0 -16 -2 -15 -8 5 -11 34 -11 60 0 35 5 -11 8 -29 8 -40z m-11541 3 c-3 -8
-6 -5 -6 6 -1 11 2 17 5 13 3 -3 4 -12 1 -19z m9303 -53 c0 -5 -5 -3 -10 5 -5
8 -10 20 -10 25 0 6 5 3 10 -5 5 -8 10 -19 10 -25z m-7343 -27 c-2 -13 -4 -5
-4 17 -1 22 1 32 4 23 2 -10 2 -28 0 -40z m9590 20 c-3 -7 -5 -2 -5 12 0 14 2
19 5 13 2 -7 2 -19 0 -25z m-11530 -20 c-3 -8 -6 -5 -6 6 -1 11 2 17 5 13 3
-3 4 -12 1 -19z m9312 -58 c0 -8 -7 1 -14 20 -18 46 -17 64 0 25 8 -16 14 -37
14 -45z m-9302 -17 c-3 -10 -5 -2 -5 17 0 19 2 27 5 18 2 -10 2 -26 0 -35z
m9320 -55 c-3 -8 -6 -5 -6 6 -1 11 2 17 5 13 3 -3 4 -12 1 -19z m-7380 -170
c-2 -35 -3 -9 -3 57 0 66 1 94 3 63 2 -32 2 -86 0 -120z m7390 95 c-3 -10 -5
-4 -5 12 0 17 2 24 5 18 2 -7 2 -21 0 -30z m-9330 -130 c-3 -10 -5 -4 -5 12 0
17 2 24 5 18 2 -7 2 -21 0 -30z m9330 -50 c-3 -10 -5 -4 -5 12 0 17 2 24 5 18
2 -7 2 -21 0 -30z m-9340 -15 c-3 -8 -6 -5 -6 6 -1 11 2 17 5 13 3 -3 4 -12 1
-19z m-10 -50 c-3 -8 -6 -5 -6 6 -1 11 2 17 5 13 3 -3 4 -12 1 -19z m1950 -60
c-2 -13 -4 -3 -4 22 0 25 2 35 4 23 2 -13 2 -33 0 -45z m7380 30 c-3 -8 -6 -5
-6 6 -1 11 2 17 5 13 3 -3 4 -12 1 -19z m-9350 -40 c-3 -8 -6 -5 -6 6 -1 11 2
17 5 13 3 -3 4 -12 1 -19z m9314 -65 c-12 -20 -14 -14 -5 12 4 9 9 14 11 11 3
-2 0 -13 -6 -23z m-9347 -32 c-9 -23 -18 -40 -20 -38 -2 2 4 22 13 45 9 23 18
40 20 38 2 -2 -4 -22 -13 -45z m1993 -8 c-3 -10 -5 -4 -5 12 0 17 2 24 5 18 2
-7 2 -21 0 -30z m7309 -50 c-24 -48 -91 -142 -141 -198 -31 -35 -17 -13 59 86
26 35 59 85 72 112 13 26 27 47 29 47 3 0 -6 -21 -19 -47z m-9360 -72 c-40
-83 -125 -224 -161 -266 -14 -16 -1 8 30 55 31 47 79 131 108 187 58 115 77
134 23 24z m2041 42 c-3 -10 -5 -4 -5 12 0 17 2 24 5 18 2 -7 2 -21 0 -30z
m-10 -65 c-3 -7 -5 -2 -5 12 0 14 2 19 5 13 2 -7 2 -19 0 -25z m-10 -60 c-3
-7 -5 -2 -5 12 0 14 2 19 5 13 2 -7 2 -19 0 -25z m-10 -50 c-3 -8 -6 -5 -6 6
-1 11 2 17 5 13 3 -3 4 -12 1 -19z m7173 -31 c0 -2 -12 -14 -27 -28 l-28 -24
24 28 c23 25 31 32 31 24z m-7183 -29 c-3 -8 -6 -5 -6 6 -1 11 2 17 5 13 3 -3
4 -12 1 -19z m-10 -50 c-3 -8 -6 -5 -6 6 -1 11 2 17 5 13 3 -3 4 -12 1 -19z
m7133 18 c0 -6 -160 -139 -205 -170 l-40 -28 35 29 c19 15 73 60 120 100 86
73 90 76 90 69z m2527 -58 c-3 -8 -6 -5 -6 6 -1 11 2 17 5 13 3 -3 4 -12 1
-19z m-9670 -10 c-3 -8 -6 -5 -6 6 -1 11 2 17 5 13 3 -3 4 -12 1 -19z m-2167
-12 c0 -2 -8 -10 -17 -17 -16 -13 -17 -12 -4 4 13 16 21 21 21 13z m2157 -38
c-3 -8 -6 -5 -6 6 -1 11 2 17 5 13 3 -3 4 -12 1 -19z m-2198 -15 c-37 -48
-137 -164 -186 -215 l-55 -58 -246 2 -247 2 249 6 249 5 69 75 c38 41 92 103
120 138 28 34 54 62 56 62 2 0 -2 -8 -9 -17z m2188 -25 c-3 -8 -6 -5 -6 6 -1
11 2 17 5 13 3 -3 4 -12 1 -19z m9670 -10 c-3 -8 -6 -5 -6 6 -1 11 2 17 5 13
3 -3 4 -12 1 -19z m-2782 -52 c-33 -27 -96 -65 -80 -49 15 16 97 73 104 73 3
0 -7 -11 -24 -24z m2772 2 c-3 -8 -6 -5 -6 6 -1 11 2 17 5 13 3 -3 4 -12 1
-19z m-9680 -30 c-3 -8 -6 -5 -6 6 -1 11 2 17 5 13 3 -3 4 -12 1 -19z m9670
-20 c-3 -8 -6 -5 -6 6 -1 11 2 17 5 13 3 -3 4 -12 1 -19z m-2857 -12 c0 -1
-23 -17 -51 -35 l-50 -31 -1142 2 -1142 3 1145 5 1145 5 45 27 c46 29 50 30
50 24z m2847 -28 c-3 -8 -6 -5 -6 6 -1 11 2 17 5 13 3 -3 4 -12 1 -19z m-9680
-10 c-3 -8 -6 -5 -6 6 -1 11 2 17 5 13 3 -3 4 -12 1 -19z m3871 -15 c-10 -2
-26 -2 -35 0 -10 3 -2 5 17 5 19 0 27 -2 18 -5z m430 0 c-10 -2 -28 -2 -40 0
-13 2 -5 4 17 4 22 1 32 -1 23 -4z m5369 -15 c-3 -8 -6 -5 -6 6 -1 11 2 17 5
13 3 -3 4 -12 1 -19z m-17054 5 c-7 -2 -19 -2 -25 0 -7 3 -2 5 12 5 14 0 19
-2 13 -5z m7374 -15 c-3 -8 -6 -5 -6 6 -1 11 2 17 5 13 3 -3 4 -12 1 -19z
m3686 15 c-13 -2 -35 -2 -50 0 -16 2 -5 4 22 4 28 0 40 -2 28 -4z m-11176 -9
c-3 -3 -12 -4 -19 -1 -8 3 -5 6 6 6 11 1 17 -2 13 -5z m226 -1 c-7 -2 -19 -2
-25 0 -7 3 -2 5 12 5 14 0 19 -2 13 -5z m-286 -9 c-3 -3 -12 -4 -19 -1 -8 3
-5 6 6 6 11 1 17 -2 13 -5z m340 0 c-3 -3 -12 -4 -19 -1 -8 3 -5 6 6 6 11 1
17 -2 13 -5z m10736 -1 c-7 -2 -19 -2 -25 0 -7 3 -2 5 12 5 14 0 19 -2 13 -5z
m-11116 -9 c-3 -3 -12 -4 -19 -1 -8 3 -5 6 6 6 11 1 17 -2 13 -5z m11046 -1
c-7 -2 -19 -2 -25 0 -7 3 -2 5 12 5 14 0 19 -2 13 -5z m6214 -15 c-3 -8 -6 -5
-6 6 -1 11 2 17 5 13 3 -3 4 -12 1 -19z m-6280 6 c-3 -3 -12 -4 -19 -1 -8 3
-5 6 6 6 11 1 17 -2 13 -5z m-54 -11 c-7 -2 -19 -2 -25 0 -7 3 -2 5 12 5 14 0
19 -2 13 -5z m-6785 -10 c-317 -2 -839 -2 -1160 0 -321 1 -61 2 577 2 638 0
900 -1 583 -2z m6729 1 c-3 -3 -12 -4 -19 -1 -8 3 -5 6 6 6 11 1 17 -2 13 -5z
m-10287 -24 c22 -11 40 -23 40 -25 0 -5 -79 32 -89 41 -11 10 14 2 49 -16z
m10247 14 c-3 -3 -12 -4 -19 -1 -8 3 -5 6 6 6 11 1 17 -2 13 -5z m6420 -16
c-3 -8 -6 -5 -6 6 -1 11 2 17 5 13 3 -3 4 -12 1 -19z m-6470 6 c-3 -3 -12 -4
-19 -1 -8 3 -5 6 6 6 11 1 17 -2 13 -5z m-8448 -8 c-10 -9 -89 -46 -89 -41 0
6 72 44 84 45 5 0 7 -2 5 -4z m8408 -2 c-3 -3 -12 -4 -19 -1 -8 3 -5 6 6 6 11
1 17 -2 13 -5z m-10957 -19 c0 -2 -10 -9 -22 -15 -22 -11 -22 -10 -4 4 21 17
26 19 26 11z m17435 -85 c-9 -28 -19 -50 -21 -48 -2 2 4 27 13 56 9 28 19 50
21 47 2 -2 -4 -27 -13 -55z m-16450 -15 l50 -47 -60 48 c-76 61 -85 69 -60 56
11 -6 43 -32 70 -57z m-1105 17 c-55 -45 -103 -93 -154 -152 -47 -55 -27 -24
29 44 39 47 150 146 163 146 4 0 -13 -17 -38 -38z m7877 16 c-3 -8 -6 -5 -6 6
-1 11 2 17 5 13 3 -3 4 -12 1 -19z m-5357 8 c0 -2 -18 -15 -40 -30 -22 -14
-40 -24 -40 -22 0 5 71 56 77 56 2 0 3 -2 3 -4z m5330 -83 c-11 -17 -11 -17
-6 0 3 10 6 24 7 30 0 9 2 9 5 0 3 -7 0 -20 -6 -30z m-5465 -15 c-27 -23 -83
-76 -124 -118 -60 -61 -66 -65 -32 -22 43 52 185 182 199 182 4 0 -15 -19 -43
-42z m-1151 -78 c46 -60 96 -141 96 -156 0 -5 -16 18 -35 51 -18 33 -57 89
-86 125 -29 36 -45 58 -35 50 10 -8 37 -39 60 -70z m6587 13 c-12 -20 -14 -14
-5 12 4 9 9 14 11 11 3 -2 0 -13 -6 -23z m2659 -7 c0 -2 -8 -10 -17 -17 -16
-13 -17 -12 -4 4 13 16 21 21 21 13z m-2679 -43 c-12 -20 -14 -14 -5 12 4 9 9
14 11 11 3 -2 0 -13 -6 -23z m2609 -7 c0 -2 -8 -10 -17 -17 -16 -13 -17 -12
-4 4 13 16 21 21 21 13z m-2629 -43 c-12 -20 -14 -14 -5 12 4 9 9 14 11 11 3
-2 0 -13 -6 -23z m-8013 -40 c-37 -67 -38 -69 -38 -57 0 11 59 114 65 114 3 0
-9 -26 -27 -57z m17683 10 c-11 -21 -20 -35 -21 -31 0 12 33 78 38 74 2 -2 -6
-21 -17 -43z m-7091 34 c0 -2 -10 -12 -22 -23 l-23 -19 19 23 c18 21 26 27 26
19z m-2609 -74 c-11 -21 -20 -35 -21 -31 0 12 33 78 38 74 2 -2 -6 -21 -17
-43z m-5561 33 c0 -2 -8 -10 -17 -17 -16 -13 -17 -12 -4 4 13 16 21 21 21 13z
m8120 1 c0 -1 -33 -34 -72 -72 l-73 -70 70 73 c64 67 75 77 75 69z m-8180 -81
c-16 -24 -50 -81 -75 -127 -24 -46 -45 -80 -45 -76 0 18 98 194 128 230 26 30
22 19 -8 -27z m-772 -21 c-3 -3 -9 2 -12 12 -6 14 -5 15 5 6 7 -7 10 -15 7
-18z m-1647 -36 c-5 -13 -10 -19 -10 -12 -1 15 10 45 15 40 3 -2 0 -15 -5 -28z
m10404 -74 c-32 -36 -60 -65 -63 -65 -5 0 8 16 82 98 54 59 39 33 -19 -33z
m7240 25 c-9 -16 -18 -30 -21 -30 -2 0 2 14 11 30 9 17 18 30 21 30 2 0 -2
-13 -11 -30z m-9705 -50 c-11 -22 -23 -40 -25 -40 -3 0 4 18 15 40 11 22 23
40 25 40 3 0 -4 -18 -15 -40z m-7963 8 c-3 -8 -6 -5 -6 6 -1 11 2 17 5 13 3
-3 4 -12 1 -19z m17633 -18 c-6 -11 -13 -20 -16 -20 -2 0 0 9 6 20 6 11 13 20
16 20 2 0 0 -9 -6 -20z m-15923 -12 c-3 -8 -6 -5 -6 6 -1 11 2 17 5 13 3 -3 4
-12 1 -19z m-1720 -30 c-3 -7 -5 -2 -5 12 0 14 2 19 5 13 2 -7 2 -19 0 -25z
m17608 -17 c-8 -17 -19 -33 -25 -36 -5 -3 -1 10 11 29 25 43 36 48 14 7z
m-15878 -13 c-3 -7 -5 -2 -5 12 0 14 2 19 5 13 2 -7 2 -19 0 -25z m6203 12
c-6 -11 -13 -20 -16 -20 -2 0 0 9 6 20 6 11 13 20 16 20 2 0 0 -9 -6 -20z
m2379 -50 c-34 -38 -64 -70 -67 -70 -6 0 17 26 87 103 60 64 45 40 -20 -33z
m-7998 9 c-5 -13 -10 -19 -10 -12 -1 15 10 45 15 40 3 -2 0 -15 -5 -28z
m-2324 -101 c-2 -24 -4 -5 -4 42 0 47 2 66 4 43 2 -24 2 -62 0 -85z m17573 73
c-5 -11 -15 -23 -22 -27 -7 -5 -8 -2 -3 7 21 37 44 55 25 20z m-9690 -30 c-5
-11 -15 -23 -21 -27 -6 -3 -3 5 6 20 20 30 30 35 15 7z m9660 -15 c0 -2 -8
-10 -17 -17 -16 -13 -17 -12 -4 4 13 16 21 21 21 13z m-7290 -19 c0 -2 -15
-16 -32 -33 l-33 -29 29 33 c28 30 36 37 36 29z m-8513 -79 c-3 -7 -5 -2 -5
12 0 14 2 19 5 13 2 -7 2 -19 0 -25z m15717 -13 c-20 -25 -39 -45 -42 -45 -5
0 8 17 52 68 35 40 28 23 -10 -23z m-9634 31 c0 -2 -8 -10 -17 -17 -16 -13
-17 -12 -4 4 13 16 21 21 21 13z m2370 -9 c0 -2 -17 -19 -37 -38 l-38 -34 34
38 c33 34 41 42 41 34z m-7933 -49 c-3 -8 -6 -5 -6 6 -1 11 2 17 5 13 3 -3 4
-12 1 -19z m5533 18 c0 -2 -8 -10 -17 -17 -16 -13 -17 -12 -4 4 13 16 21 21
21 13z m-6063 -38 c-3 -8 -6 -5 -6 6 -1 11 2 17 5 13 3 -3 4 -12 1 -19z m6013
-28 c-11 -16 -26 -33 -32 -36 -7 -4 1 9 16 29 34 44 46 50 16 7z m2320 -50
c-34 -38 -64 -70 -67 -70 -3 0 23 32 57 70 34 39 64 70 67 70 3 0 -23 -31 -57
-70z m7277 -13 c-84 -92 -225 -218 -332 -297 -85 -63 -48 -28 63 58 44 35 138
121 209 192 70 72 130 130 131 130 2 0 -30 -37 -71 -83z m-15620 51 c-3 -8 -6
-5 -6 6 -1 11 2 17 5 13 3 -3 4 -12 1 -19z m-1690 -20 c-3 -8 -6 -5 -6 6 -1
11 2 17 5 13 3 -3 4 -12 1 -19z m2210 -20 c-3 -8 -6 -5 -6 6 -1 11 2 17 5 13
3 -3 4 -12 1 -19z m5433 -39 c-41 -51 -225 -238 -309 -312 l-63 -57 17 -28 17
-27 -27 27 -28 27 34 28 c111 92 230 209 328 321 62 70 79 82 31 21z m-5443
-31 c-3 -7 -5 -2 -5 12 0 14 2 19 5 13 2 -7 2 -19 0 -25z m-546 -5 c-12 -20
-14 -14 -5 12 4 9 9 14 11 11 3 -2 0 -13 -6 -23z m8309 -6 c0 -2 -15 -16 -32
-33 l-33 -29 29 33 c28 30 36 37 36 29z m-8335 -56 c-21 -43 -29 -39 -8 4 9
19 18 33 21 31 2 -2 -4 -18 -13 -35z m-1561 -8 c9 -18 14 -33 12 -33 -6 0 -36
55 -36 66 0 11 5 3 24 -33z m2123 0 c-3 -10 -5 -4 -5 12 0 17 2 24 5 18 2 -7
2 -21 0 -30z m7713 -6 c0 -2 -15 -16 -32 -33 l-33 -29 29 33 c28 30 36 37 36
29z m-9800 -57 c6 -11 8 -20 6 -20 -3 0 -10 9 -16 20 -6 11 -8 20 -6 20 3 0
10 -9 16 -20z m9680 -80 c-34 -38 -64 -70 -67 -70 -3 0 23 32 57 70 34 39 64
70 67 70 3 0 -23 -31 -57 -70z m-7603 -97 c-2 -32 -3 -8 -3 52 0 61 1 87 3 58
2 -29 2 -78 0 -110z m-627 123 c0 -2 -8 -10 -17 -17 -16 -13 -17 -12 -4 4 13
16 21 21 21 13z m-1283 -145 c40 -36 41 -38 8 -13 -40 30 -82 73 -120 123 -11
14 -1 5 22 -20 23 -26 63 -66 90 -90z m1203 53 c-30 -30 -73 -70 -95 -87 -22
-17 1 8 50 55 102 98 127 116 45 32z m15410 -25 c-31 -24 -60 -41 -60 -35 0 6
72 56 80 56 3 0 -6 -9 -20 -21z m-7170 8 c0 -2 -15 -16 -32 -33 l-33 -29 29
33 c28 30 36 37 36 29z m7100 -52 c0 -2 -10 -9 -22 -15 -22 -11 -22 -10 -4 4
21 17 26 19 26 11z m-7160 -18 c0 -2 -17 -19 -37 -38 l-38 -34 34 38 c33 34
41 42 41 34z m-9309 -24 c13 -16 12 -17 -3 -4 -17 13 -22 21 -14 21 2 0 10 -8
17 -17z m16409 3 c-17 -15 -139 -84 -128 -72 7 8 129 83 138 85 2 1 -2 -5 -10
-13z m-15420 -11 c0 -2 -10 -9 -22 -15 -22 -11 -22 -10 -4 4 21 17 26 19 26
11z m6000 -20 c13 -14 21 -25 18 -25 -2 0 -15 11 -28 25 -13 14 -21 25 -18 25
2 0 15 -11 28 -25z m-6831 -61 c8 -7 -43 12 -78 31 -17 8 -32 19 -35 23 -5 8
102 -43 113 -54z m751 32 c0 -2 -7 -7 -16 -10 -8 -3 -12 -2 -9 4 6 10 25 14
25 6z m8330 1 c0 -2 -15 -16 -32 -33 l-33 -29 29 33 c28 30 36 37 36 29z
m-7393 -44 c-3 -10 -5 -4 -5 12 0 17 2 24 5 18 2 -7 2 -21 0 -30z m5193 12
c13 -14 21 -25 18 -25 -2 0 -15 11 -28 25 -13 14 -21 25 -18 25 2 0 15 -11 28
-25z m-6180 5 c-8 -5 -19 -10 -25 -10 -5 0 -3 5 5 10 8 5 20 10 25 10 6 0 3
-5 -5 -10z m15400 -1 c-25 -17 -149 -79 -157 -79 -10 1 149 87 162 89 6 0 3
-4 -5 -10z m-16025 -29 c13 -6 15 -9 5 -9 -8 0 -22 4 -30 9 -18 12 -2 12 25 0z
m532 -6 c-3 -3 -12 -4 -19 -1 -8 3 -5 6 6 6 11 1 17 -2 13 -5z m8352 -74 c-34
-38 -64 -70 -67 -70 -6 0 17 26 87 103 60 64 45 40 -20 -33z m-8432 54 c-3 -3
-12 -4 -19 -1 -8 3 -5 6 6 6 11 1 17 -2 13 -5z m6443 -54 c23 -28 40 -50 37
-50 -2 0 -26 26 -53 57 -27 31 -44 54 -37 50 6 -4 30 -30 53 -57z m-6737 43
c-7 -2 -21 -2 -30 0 -10 3 -4 5 12 5 17 0 24 -2 18 -5z m240 0 c-7 -2 -19 -2
-25 0 -7 3 -2 5 12 5 14 0 19 -2 13 -5z m-106 -10 c-20 -2 -52 -2 -70 0 -17 2
0 4 38 4 39 0 53 -2 32 -4z m1330 -35 c-3 -7 -5 -2 -5 12 0 14 2 19 5 13 2 -7
2 -19 0 -25z m14203 12 c-8 -5 -19 -10 -25 -10 -5 0 -3 5 5 10 8 5 20 10 25
10 6 0 3 -5 -5 -10z m-14086 -155 l88 -100 -95 100 c-53 55 -97 104 -97 110 0
6 3 6 8 0 4 -6 48 -55 96 -110z m13916 85 c-8 -5 -19 -10 -25 -10 -5 0 -3 5 5
10 8 5 20 10 25 10 6 0 3 -5 -5 -10z m-8690 -25 c13 -14 21 -25 18 -25 -2 0
-15 11 -28 25 -13 14 -21 25 -18 25 2 0 15 -11 28 -25z m8640 5 c-8 -5 -22 -9
-30 -9 -10 0 -8 3 5 9 27 12 43 12 25 0z m-6790 -3 c0 -2 -17 -19 -37 -38
l-38 -34 34 38 c33 34 41 42 41 34z m-1800 -62 c13 -14 21 -25 18 -25 -2 0
-15 11 -28 25 -13 14 -21 25 -18 25 2 0 15 -11 28 -25z m8367 -11 c-3 -3 -12
-4 -19 -1 -8 3 -5 6 6 6 11 1 17 -2 13 -5z m-6692 -69 c-32 -36 -60 -65 -63
-65 -5 0 8 16 82 98 54 59 39 33 -19 -33z m6582 39 c-3 -3 -12 -4 -19 -1 -8 3
-5 6 6 6 11 1 17 -2 13 -5z m-8167 -64 c23 -28 40 -50 37 -50 -2 0 -26 26 -53
57 -27 31 -44 54 -37 50 6 -4 30 -30 53 -57z m8007 24 c-3 -3 -12 -4 -19 -1
-8 3 -5 6 6 6 11 1 17 -2 13 -5z m-80 -20 c-3 -3 -12 -4 -19 -1 -8 3 -5 6 6 6
11 1 17 -2 13 -5z m-13127 -78 c36 -40 98 -109 139 -154 40 -45 71 -82 68 -82
-2 0 -68 70 -146 155 -78 85 -139 155 -134 154 4 0 37 -33 73 -73z m13077 68
c-3 -3 -12 -4 -19 -1 -8 3 -5 6 6 6 11 1 17 -2 13 -5z m-50 -10 c-3 -3 -12 -4
-19 -1 -8 3 -5 6 6 6 11 1 17 -2 13 -5z m-54 -11 c-7 -2 -19 -2 -25 0 -7 3 -2
5 12 5 14 0 19 -2 13 -5z m-56 -9 c-3 -3 -12 -4 -19 -1 -8 3 -5 6 6 6 11 1 17
-2 13 -5z m-64 -11 c-7 -2 -19 -2 -25 0 -7 3 -2 5 12 5 14 0 19 -2 13 -5z
m-6133 -6 c0 -2 -17 -19 -37 -38 l-38 -34 34 38 c33 34 41 42 41 34z m6073 -4
c-7 -2 -21 -2 -30 0 -10 3 -4 5 12 5 17 0 24 -2 18 -5z m-7523 -28 c13 -14 21
-25 18 -25 -2 0 -15 11 -28 25 -13 14 -21 25 -18 25 2 0 15 -11 28 -25z m5742
15 c-19 -4 -48 -21 -65 -36 -30 -28 -30 -27 2 9 27 28 42 37 65 36 l31 -1 -33
-8z m1711 3 c-7 -2 -21 -2 -30 0 -10 3 -4 5 12 5 17 0 24 -2 18 -5z m-1610
-10 c-7 -2 -19 -2 -25 0 -7 3 -2 5 12 5 14 0 19 -2 13 -5z m1530 0 c-7 -2 -21
-2 -30 0 -10 3 -4 5 12 5 17 0 24 -2 18 -5z m-1440 -10 c-7 -2 -19 -2 -25 0
-7 3 -2 5 12 5 14 0 19 -2 13 -5z m1350 0 c-7 -2 -19 -2 -25 0 -7 3 -2 5 12 5
14 0 19 -2 13 -5z m-1235 -10 c-10 -2 -26 -2 -35 0 -10 3 -2 5 17 5 19 0 27
-2 18 -5z m1130 0 c-10 -2 -26 -2 -35 0 -10 3 -2 5 17 5 19 0 27 -2 18 -5z
m-970 -10 c-16 -2 -40 -2 -55 0 -16 2 -3 4 27 4 30 0 43 -2 28 -4z m855 0
c-13 -2 -35 -2 -50 0 -16 2 -5 4 22 4 28 0 40 -2 28 -4z m-610 -10 c-23 -2
-64 -2 -90 0 -26 2 -7 3 42 3 50 0 71 -1 48 -3z m395 0 c-27 -2 -69 -2 -95 0
-27 2 -5 3 47 3 52 0 74 -1 48 -3z m-6792 -35 l29 -33 -32 29 c-31 28 -38 36
-30 36 2 0 16 -15 33 -32z m1324 19 c0 -2 -15 -16 -32 -33 l-33 -29 29 33 c28
30 36 37 36 29z m4252 -30 c-11 -12 -25 -33 -31 -47 -6 -16 -10 -19 -10 -8 -1
16 44 78 57 78 3 0 -4 -10 -16 -23z m-5522 -52 c13 -14 21 -25 18 -25 -2 0
-15 11 -28 25 -13 14 -21 25 -18 25 2 0 15 -11 28 -25z m1210 12 c0 -2 -15
-16 -32 -33 l-33 -29 29 33 c28 30 36 37 36 29z m-1160 -72 c13 -14 21 -25 18
-25 -2 0 -15 11 -28 25 -13 14 -21 25 -18 25 2 0 15 -11 28 -25z m1009 -100
c-50 -58 -94 -105 -97 -105 -3 0 5 12 19 28 14 15 55 62 93 105 37 42 70 77
72 77 3 0 -37 -47 -87 -105z m-959 40 c13 -14 21 -25 18 -25 -2 0 -15 11 -28
25 -13 14 -21 25 -18 25 2 0 15 -11 28 -25z m-4945 -330 c165 -181 318 -350
341 -375 22 -25 90 -99 149 -165 60 -66 124 -137 144 -157 19 -21 32 -38 29
-38 -9 0 -978 1067 -978 1077 0 4 4 3 8 -2 5 -6 143 -158 307 -340z m4995 270
c13 -14 21 -25 18 -25 -2 0 -15 11 -28 25 -13 14 -21 25 -18 25 2 0 15 -11 28
-25z m60 -70 c13 -14 21 -25 18 -25 -2 0 -15 11 -28 25 -13 14 -21 25 -18 25
2 0 15 -11 28 -25z m750 -28 c0 -2 -17 -19 -37 -38 l-38 -34 34 38 c33 34 41
42 41 34z m-640 -102 c34 -41 59 -75 57 -75 -3 0 -38 39 -78 88 -40 48 -66 81
-57 74 9 -7 44 -46 78 -87z m570 22 c0 -2 -15 -16 -32 -33 l-33 -29 29 33 c28
30 36 37 36 29z m-60 -70 c0 -2 -17 -19 -37 -38 l-38 -34 34 38 c33 34 41 42
41 34z m-380 -107 c23 -28 40 -50 37 -50 -2 0 -26 26 -53 57 -27 31 -44 54
-37 50 6 -4 30 -30 53 -57z m310 27 c0 -2 -15 -16 -32 -33 l-33 -29 29 33 c28
30 36 37 36 29z m-60 -70 c0 -2 -17 -19 -37 -38 l-38 -34 34 38 c33 34 41 42
41 34z m-174 -49 l29 -33 -32 29 c-31 28 -38 36 -30 36 2 0 16 -15 33 -32z
m89 -48 c-21 -23 -38 -25 -54 -7 -8 11 -5 13 18 9 16 -2 32 1 35 7 4 6 10 11
13 11 3 0 -2 -9 -12 -20z m-4566 -749 c58 -58 87 -90 63 -72 -46 36 -274 274
-281 294 -2 6 22 -18 54 -53 32 -36 106 -112 164 -169z m261 -249 c24 -23 42
-43 39 -46 -3 -3 -48 38 -100 92 -51 53 -69 74 -39 46 30 -29 75 -70 100 -92z
m310 -299 c0 -9 -97 77 -160 143 -46 48 -33 38 48 -36 61 -56 112 -105 112
-107z m7028 -795 l-3 -803 -2 773 c-3 640 -5 774 -17 778 -8 3 -40 -23 -77
-63 -35 -37 -95 -99 -133 -138 -37 -38 -1 3 80 92 82 90 150 163 152 163 1 0
1 -361 0 -802z m-6873 647 c33 -32 47 -48 30 -37 -16 11 -64 56 -105 99 -72
75 -50 57 75 -62z m235 -225 c51 -50 59 -60 25 -32 -27 22 -79 71 -115 109
-70 73 -32 40 90 -77z m6340 47 c0 -1 -28 -29 -62 -62 l-63 -60 60 63 c55 58
65 67 65 59z m-6140 -236 c30 -28 50 -51 45 -51 -6 0 -46 37 -90 82 -77 80
-72 76 45 -31z m5856 -69 c-91 -99 -173 -185 -183 -193 -10 -8 62 73 161 179
98 105 180 192 183 192 2 0 -70 -80 -161 -178z m-5775 -9 c13 -16 12 -17 -3
-4 -10 7 -18 15 -18 17 0 8 8 3 21 -13z m154 -147 c28 -25 45 -46 40 -46 -6 0
-49 39 -95 87 -47 48 -65 69 -40 46 25 -23 68 -62 95 -87z m80 -76 c10 -11 16
-20 13 -20 -3 0 -13 9 -23 20 -10 11 -16 20 -13 20 3 0 13 -9 23 -20z m5275
-53 l-64 -62 59 65 c33 36 62 64 65 62 2 -1 -25 -31 -60 -65z m-5095 -122 c69
-67 69 -67 10 -17 -33 28 -85 77 -115 109 -46 49 -48 51 -10 17 25 -23 77 -72
115 -109z m4925 -65 c-62 -66 -118 -123 -124 -127 -6 -4 42 50 108 120 65 70
121 127 123 127 3 0 -45 -54 -107 -120z m-4700 -150 c55 -53 57 -56 15 -22
-27 22 -77 69 -110 104 -65 68 -23 32 95 -82z m4566 1 c-3 -5 -38 -37 -78 -71
l-73 -62 75 70 c74 70 87 81 76 63z m-4336 -221 c42 -41 46 -46 15 -22 -22 17
-71 63 -110 104 -57 59 -60 64 -15 22 30 -28 80 -74 110 -104z m7320 96 c0 -2
-8 -10 -17 -17 -16 -13 -17 -12 -4 4 13 16 21 21 21 13z m-3140 -9 c0 -2 -10
-12 -22 -23 l-23 -19 19 23 c18 21 26 27 26 19z m-50 -41 c0 -2 -8 -10 -17
-17 -16 -13 -17 -12 -4 4 13 16 21 21 21 13z m3100 -66 c-23 -27 -44 -50 -47
-50 -3 0 14 23 37 50 23 28 44 50 47 50 3 0 -14 -22 -37 -50z m-3230 -25 c0
-2 -10 -9 -22 -15 -22 -11 -22 -10 -4 4 21 17 26 19 26 11z m-3790 -155 c36
-34 52 -53 35 -42 -16 11 -66 58 -110 104 -79 81 -54 61 75 -62z m3740 125 c0
-2 -10 -9 -22 -15 -22 -11 -22 -10 -4 4 21 17 26 19 26 11z m3170 -68 c-36
-34 -85 -77 -110 -96 -37 -27 -35 -25 10 15 30 27 77 70 104 96 26 27 51 48
55 48 3 -1 -23 -29 -59 -63z m-3274 8 c-11 -8 -25 -15 -30 -15 -6 1 0 7 14 15
32 19 40 18 16 0z m1714 -51 c0 -3 -13 4 -30 16 -16 12 -30 24 -30 26 0 3 14
-4 30 -16 17 -12 30 -24 30 -26z m90 -61 c0 -7 -39 17 -46 28 -3 6 5 3 20 -6
14 -10 26 -19 26 -22z m185 -102 c-5 -4 -156 76 -170 91 -5 5 31 -12 82 -39
50 -26 90 -50 88 -52z m1120 69 c-3 -5 -16 -15 -28 -21 -19 -9 -19 -8 3 10 28
23 34 26 25 11z m-5565 -7 c-8 -3 -31 -14 -50 -25 l-35 -20 30 25 c17 15 39
26 50 26 14 0 16 -2 5 -6z m1973 -30 c-7 -2 -19 -2 -25 0 -7 3 -2 5 12 5 14 0
19 -2 13 -5z m3537 2 c0 -6 -85 -55 -96 -55 -5 0 14 13 41 30 55 32 55 32 55
25z m-5367 -12 c-7 -2 -19 -2 -25 0 -7 3 -2 5 12 5 14 0 19 -2 13 -5z m1784 1
c-3 -3 -12 -4 -19 -1 -8 3 -5 6 6 6 11 1 17 -2 13 -5z m-1730 -10 c-3 -3 -12
-4 -19 -1 -8 3 -5 6 6 6 11 1 17 -2 13 -5z m1680 0 c-3 -3 -12 -4 -19 -1 -8 3
-5 6 6 6 11 1 17 -2 13 -5z m-1640 -10 c-3 -3 -12 -4 -19 -1 -8 3 -5 6 6 6 11
1 17 -2 13 -5z m1600 0 c-3 -3 -12 -4 -19 -1 -8 3 -5 6 6 6 11 1 17 -2 13 -5z
m-60 -10 c-3 -3 -12 -4 -19 -1 -8 3 -5 6 6 6 11 1 17 -2 13 -5z m-2640 -10
c-3 -3 -12 -4 -19 -1 -8 3 -5 6 6 6 11 1 17 -2 13 -5z m1210 0 c-3 -3 -12 -4
-19 -1 -8 3 -5 6 6 6 11 1 17 -2 13 -5z m1386 -1 c-7 -2 -19 -2 -25 0 -7 3 -2
5 12 5 14 0 19 -2 13 -5z m-1903 -13 c-8 -5 -19 -10 -25 -10 -5 0 -3 5 5 10 8
5 20 10 25 10 6 0 3 -5 -5 -10z m583 3 c-7 -2 -21 -2 -30 0 -10 3 -4 5 12 5
17 0 24 -2 18 -5z m1260 0 c-7 -2 -21 -2 -30 0 -10 3 -4 5 12 5 17 0 24 -2 18
-5z m2862 -3 c13 -6 15 -9 5 -9 -8 0 -22 4 -30 9 -18 12 -2 12 25 0z m851 -5
c-11 -8 -25 -15 -30 -15 -6 1 0 7 14 15 32 19 40 18 16 0z m-4903 -2 c-7 -2
-19 -2 -25 0 -7 3 -2 5 12 5 14 0 19 -2 13 -5z m1104 1 c-3 -3 -12 -4 -19 -1
-8 3 -5 6 6 6 11 1 17 -2 13 -5z m-2330 -10 c-3 -3 -12 -4 -19 -1 -8 3 -5 6 6
6 11 1 17 -2 13 -5z m1306 -1 c-7 -2 -19 -2 -25 0 -7 3 -2 5 12 5 14 0 19 -2
13 -5z m950 0 c-7 -2 -19 -2 -25 0 -7 3 -2 5 12 5 14 0 19 -2 13 -5z m-2210
-10 c-7 -2 -19 -2 -25 0 -7 3 -2 5 12 5 14 0 19 -2 13 -5z m1390 0 c-7 -2 -21
-2 -30 0 -10 3 -4 5 12 5 17 0 24 -2 18 -5z m710 0 c-7 -2 -21 -2 -30 0 -10 3
-4 5 12 5 17 0 24 -2 18 -5z m-1696 -9 c-3 -3 -12 -4 -19 -1 -8 3 -5 6 6 6 11
1 17 -2 13 -5z m1186 -1 c-13 -2 -35 -2 -50 0 -16 2 -5 4 22 4 28 0 40 -2 28
-4z m330 0 c-13 -2 -35 -2 -50 0 -16 2 -5 4 22 4 28 0 40 -2 28 -4z m4077 -3
c-8 -5 -22 -9 -30 -9 -10 0 -8 3 5 9 27 12 43 12 25 0z m-5867 -7 c-7 -2 -19
-2 -25 0 -7 3 -2 5 12 5 14 0 19 -2 13 -5z m210 0 c-7 -2 -19 -2 -25 0 -7 3
-2 5 12 5 14 0 19 -2 13 -5z m5604 -9 c-3 -3 -12 -4 -19 -1 -8 3 -5 6 6 6 11
1 17 -2 13 -5z m-440 -20 c-3 -3 -12 -4 -19 -1 -8 3 -5 6 6 6 11 1 17 -2 13
-5z m350 0 c-3 -3 -12 -4 -19 -1 -8 3 -5 6 6 6 11 1 17 -2 13 -5z m-284 -11
c-7 -2 -19 -2 -25 0 -7 3 -2 5 12 5 14 0 19 -2 13 -5z m220 0 c-7 -2 -19 -2
-25 0 -7 3 -2 5 12 5 14 0 19 -2 13 -5z m-9516 -1389 c-3 -3 -12 -4 -19 -1 -8
3 -5 6 6 6 11 1 17 -2 13 -5z m181 -74 c28 -21 54 -45 58 -52 4 -7 -6 -1 -22
13 -16 14 -47 38 -69 53 -22 14 -35 26 -28 26 6 0 34 -18 61 -40z m10152 36
c0 -2 -7 -7 -16 -10 -8 -3 -12 -2 -9 4 6 10 25 14 25 6z m215 -36 c42 -22 69
-40 62 -40 -8 0 -46 18 -83 40 -38 22 -66 40 -62 40 4 0 41 -18 83 -40z m-255
16 c0 -3 -15 -14 -32 -26 l-33 -22 30 26 c31 27 35 29 35 22z m415 -36 c-10
-11 -28 -20 -39 -20 -16 0 -13 4 14 19 46 24 46 24 25 1z m-10994 3 c-130 -2
-209 -7 -218 -14 -10 -9 -13 -8 -13 5 0 14 23 16 218 14 l217 -3 -204 -2z
m286 -9 c-3 -3 -12 -4 -19 -1 -8 3 -5 6 6 6 11 1 17 -2 13 -5z m10391 -23
c-26 -4 -56 -15 -67 -25 -12 -11 -24 -17 -26 -14 -13 13 62 48 100 46 l40 -1
-47 -6z m-10291 -18 c28 -18 83 -89 83 -106 0 -6 -14 10 -31 36 -16 25 -44 55
-62 66 -18 11 -28 21 -24 21 4 0 19 -8 34 -17z m7591 0 c-10 -2 -28 -2 -40 0
-13 2 -5 4 17 4 22 1 32 -1 23 -4z m2823 -18 c24 -14 40 -25 34 -25 -11 0 -94
49 -84 50 4 0 27 -11 50 -25z m279 21 c0 -3 -15 -14 -32 -26 l-33 -22 30 26
c31 27 35 29 35 22z m-535 -16 c3 -6 -1 -7 -9 -4 -18 7 -21 14 -7 14 6 0 13
-4 16 -10z m-2525 -274 c15 -15 12 -26 -5 -26 -13 0 -15 22 -13 148 l2 147 3
-130 c2 -71 8 -134 13 -139z m2917 218 c-3 -3 -12 -4 -19 -1 -8 3 -5 6 6 6 11
1 17 -2 13 -5z m-10340 -121 c-3 -10 -5 -2 -5 17 0 19 2 27 5 18 2 -10 2 -26
0 -35z m-110 -15 c-2 -13 -4 -5 -4 17 -1 22 1 32 4 23 2 -10 2 -28 0 -40z m0
-80 c-2 -13 -4 -5 -4 17 -1 22 1 32 4 23 2 -10 2 -28 0 -40z m110 -10 c-3 -7
-5 -2 -5 12 0 14 2 19 5 13 2 -7 2 -19 0 -25z m7313 7 c0 -19 -5 -25 -20 -25
-20 0 -20 1 -3 25 22 30 23 30 23 0z m-4433 -11 c-3 -3 -12 -4 -19 -1 -8 3 -5
6 6 6 11 1 17 -2 13 -5z m540 0 c-3 -3 -12 -4 -19 -1 -8 3 -5 6 6 6 11 1 17
-2 13 -5z m1156 -1 c-7 -2 -19 -2 -25 0 -7 3 -2 5 12 5 14 0 19 -2 13 -5z
m850 0 c-7 -2 -19 -2 -25 0 -7 3 -2 5 12 5 14 0 19 -2 13 -5z m1224 1 c-3 -3
-12 -4 -19 -1 -8 3 -5 6 6 6 11 1 17 -2 13 -5z m1456 -1 c-7 -2 -19 -2 -25 0
-7 3 -2 5 12 5 14 0 19 -2 13 -5z m190 0 c-7 -2 -19 -2 -25 0 -7 3 -2 5 12 5
14 0 19 -2 13 -5z m940 0 c-7 -2 -19 -2 -25 0 -7 3 -2 5 12 5 14 0 19 -2 13
-5z m154 1 c-3 -3 -12 -4 -19 -1 -8 3 -5 6 6 6 11 1 17 -2 13 -5z m730 0 c-3
-3 -12 -4 -19 -1 -8 3 -5 6 6 6 11 1 17 -2 13 -5z m196 -1 c-7 -2 -19 -2 -25
0 -7 3 -2 5 12 5 14 0 19 -2 13 -5z m894 1 c-3 -3 -12 -4 -19 -1 -8 3 -5 6 6
6 11 1 17 -2 13 -5z m136 -1 c-7 -2 -19 -2 -25 0 -7 3 -2 5 12 5 14 0 19 -2
13 -5z m-9706 -9 c-3 -3 -12 -4 -19 -1 -8 3 -5 6 6 6 11 1 17 -2 13 -5z m1740
0 c-3 -3 -12 -4 -19 -1 -8 3 -5 6 6 6 11 1 17 -2 13 -5z m6690 0 c-3 -3 -12
-4 -19 -1 -8 3 -5 6 6 6 11 1 17 -2 13 -5z m1100 0 c-3 -3 -12 -4 -19 -1 -8 3
-5 6 6 6 11 1 17 -2 13 -5z m-11306 -65 c-12 -22 -34 -51 -49 -65 -30 -28 -99
-64 -122 -63 -8 0 8 9 37 20 60 23 128 92 139 142 4 18 9 26 11 19 3 -7 -5
-31 -16 -53z m2556 -642 c-1 -127 -2 -23 -2 233 0 256 1 360 2 232 2 -127 2
-337 0 -465z m1248 683 c3 -6 -1 -7 -9 -4 -18 7 -21 14 -7 14 6 0 13 -4 16
-10z m1655 6 c0 -2 -7 -7 -16 -10 -8 -3 -12 -2 -9 4 6 10 25 14 25 6z m345 -6
c3 -6 -1 -7 -9 -4 -18 7 -21 14 -7 14 6 0 13 -4 16 -10z m643 -30 c9 0 32 9
50 20 48 29 53 24 7 -7 -22 -15 -47 -35 -56 -45 -25 -27 -29 -22 -28 30 1 26
4 37 6 25 3 -13 12 -23 21 -23z m1682 36 c0 -2 -7 -7 -16 -10 -8 -3 -12 -2 -9
4 6 10 25 14 25 6z m1129 0 c-2 -2 -15 -9 -29 -15 -24 -11 -24 -11 -6 3 16 13
49 24 35 12z m366 -6 c3 -6 -1 -7 -9 -4 -18 7 -21 14 -7 14 6 0 13 -4 16 -10z
m514 6 c-2 -2 -15 -9 -29 -15 -24 -11 -24 -11 -6 3 16 13 49 24 35 12z m-8642
-1014 c-1 -185 -2 -33 -2 338 0 371 1 523 2 337 2 -185 2 -489 0 -675z m150
963 c-26 -25 -49 -45 -52 -45 -3 0 -5 17 -4 38 0 20 3 31 6 25 7 -19 34 -15
63 7 40 31 36 23 -13 -25z m484 -12 c8 -9 -5 -2 -28 17 -24 18 -43 35 -43 37
0 7 56 -35 71 -54z m629 52 c0 -2 -10 -9 -22 -15 -22 -11 -22 -10 -4 4 21 17
26 19 26 11z m371 -12 c13 -16 12 -17 -3 -4 -10 7 -18 15 -18 17 0 8 8 3 21
-13z m1274 9 c-37 -31 -88 -63 -75 -47 8 10 29 26 45 37 31 19 46 24 30 10z
m475 -7 c17 -9 30 -18 30 -21 0 -4 -59 23 -69 32 -10 9 13 3 39 -11z m4831
-52 c8 -9 -5 -2 -28 17 -24 18 -43 35 -43 37 0 7 56 -35 71 -54z m-2735 -2
c22 -31 12 -25 -27 16 -22 24 -26 31 -11 20 13 -8 30 -25 38 -36z m2224 46 c0
-1 -21 -20 -47 -41 l-48 -38 44 41 c40 38 51 46 51 38z m880 -1 c0 -2 -8 -10
-17 -17 -16 -13 -17 -12 -4 4 13 16 21 21 21 13z m1088 -19 c-14 -12 -36 -33
-48 -47 l-22 -25 22 32 c19 30 57 64 70 63 3 -1 -7 -11 -22 -23z m522 -32 c23
-27 3 -16 -36 22 -33 30 -34 33 -8 15 17 -12 37 -28 44 -37z m-11585 -4 c-22
-44 -27 -38 -7 9 9 21 18 35 20 30 2 -5 -4 -22 -13 -39z m2599 31 c-6 -4 -18
-18 -27 -32 l-17 -24 0 32 c0 18 4 31 8 28 4 -2 14 -1 22 4 17 10 30 2 14 -8z
m686 15 c0 -2 -12 -14 -27 -28 l-28 -24 24 28 c23 25 31 32 31 24z m496 -29
l29 -33 -32 29 c-31 28 -38 36 -30 36 2 0 16 -15 33 -32z m1467 -13 c-20 -25
-39 -45 -41 -45 -6 0 15 27 47 63 39 43 36 31 -6 -18z m559 -17 c30 -44 16
-33 -27 20 -21 26 -28 38 -16 27 13 -11 32 -32 43 -47z m2148 59 c0 -2 -15
-16 -32 -33 l-33 -29 29 33 c28 30 36 37 36 29z m565 -17 c10 -11 16 -20 13
-20 -3 0 -13 9 -23 20 -10 11 -16 20 -13 20 3 0 13 -9 23 -20z m2010 0 c10
-11 16 -20 13 -20 -3 0 -13 9 -23 20 -10 11 -16 20 -13 20 3 0 13 -9 23 -20z
m-9555 -35 l25 -30 -33 29 c-17 17 -32 34 -32 40 0 6 3 6 8 1 4 -6 18 -23 32
-40z m6370 23 c0 -21 0 -21 -22 -2 -13 10 -25 20 -27 21 -2 2 8 3 22 3 21 0
27 -5 27 -22z m130 9 l-25 -13 -5 -324 -5 -325 -3 338 -2 337 33 0 32 0 -25
-13z m-7059 -30 l-24 -22 19 27 c10 14 21 24 23 22 3 -3 -6 -15 -18 -27z m252
26 c-7 -2 -21 -2 -30 0 -10 3 -4 5 12 5 17 0 24 -2 18 -5z m80 0 c-7 -2 -19
-2 -25 0 -7 3 -2 5 12 5 14 0 19 -2 13 -5z m980 0 c-7 -2 -21 -2 -30 0 -10 3
-4 5 12 5 17 0 24 -2 18 -5z m95 0 c-10 -2 -26 -2 -35 0 -10 3 -2 5 17 5 19 0
27 -2 18 -5z m965 0 c-7 -2 -21 -2 -30 0 -10 3 -4 5 12 5 17 0 24 -2 18 -5z
m123 -9 c18 -9 39 -23 46 -32 8 -10 1 -8 -18 6 -18 12 -49 26 -70 31 -26 6
-31 9 -16 10 13 1 39 -6 58 -15z m567 9 c-7 -2 -19 -2 -25 0 -7 3 -2 5 12 5
14 0 19 -2 13 -5z m153 -18 c28 -14 61 -37 75 -52 l24 -27 -34 27 c-45 37 -85
57 -134 67 -37 7 -38 8 -11 9 16 1 53 -10 80 -24z m814 16 c-19 -4 -46 -11
-60 -14 -20 -6 -19 -4 5 8 17 8 44 14 60 13 29 0 29 0 -5 -7z m138 2 c-10 -2
-28 -2 -40 0 -13 2 -5 4 17 4 22 1 32 -1 23 -4z m895 0 c-7 -2 -19 -2 -25 0
-7 3 -2 5 12 5 14 0 19 -2 13 -5z m90 0 c-7 -2 -21 -2 -30 0 -10 3 -4 5 12 5
17 0 24 -2 18 -5z m937 -9 c-65 -17 -116 -56 -147 -110 -13 -21 -23 -35 -23
-30 0 4 9 25 21 45 31 56 118 109 179 110 14 0 0 -7 -30 -15z m218 -11 c37
-20 102 -94 102 -116 0 -7 -12 7 -26 30 -28 48 -90 89 -155 103 l-44 9 43 -3
c23 -2 59 -13 80 -23z m1450 20 c-10 -2 -26 -2 -35 0 -10 3 -2 5 17 5 19 0 27
-2 18 -5z m140 0 c-10 -2 -28 -2 -40 0 -13 2 -5 4 17 4 22 1 32 -1 23 -4z
m985 0 c-7 -2 -21 -2 -30 0 -10 3 -4 5 12 5 17 0 24 -2 18 -5z m152 -18 c54
-26 72 -39 95 -70 8 -11 -1 -6 -20 11 -41 38 -85 61 -137 73 -28 7 -32 9 -13
10 14 0 48 -10 75 -24z m733 18 c-10 -2 -26 -2 -35 0 -10 3 -2 5 17 5 19 0 27
-2 18 -5z m130 0 c-10 -2 -26 -2 -35 0 -10 3 -2 5 17 5 19 0 27 -2 18 -5z
m965 0 c-7 -2 -21 -2 -30 0 -10 3 -4 5 12 5 17 0 24 -2 18 -5z m80 0 c-7 -2
-19 -2 -25 0 -7 3 -2 5 12 5 14 0 19 -2 13 -5z m-10772 -19 c-19 -8 -41 -19
-48 -26 -7 -6 -13 -8 -13 -4 0 10 63 46 80 46 8 -1 0 -7 -19 -16z m1064 -1
c-65 -34 -105 -85 -131 -168 -7 -22 -13 -31 -13 -20 -1 27 51 136 75 156 23
20 75 48 89 48 6 0 -3 -7 -20 -16z m261 -15 c32 -22 69 -69 79 -103 3 -11 -3
-4 -14 15 -22 40 -63 80 -106 104 -16 10 -21 14 -10 11 11 -3 34 -16 51 -27z
m774 0 c-41 -25 -61 -47 -87 -93 -19 -33 -31 -49 -27 -35 17 63 109 158 154
159 8 1 -10 -14 -40 -31z m740 22 c-8 -5 -19 -10 -25 -10 -5 0 -3 5 5 10 8 5
20 10 25 10 6 0 3 -5 -5 -10z m1239 -1 c48 -17 32 -20 -19 -4 -25 7 -38 14
-29 14 9 1 30 -4 48 -10z m736 -10 c-53 -26 -99 -72 -120 -120 -10 -22 -20
-37 -22 -35 -9 8 39 87 68 114 33 30 88 62 104 62 5 -1 -8 -10 -30 -21z m243
1 c17 -11 32 -23 32 -26 0 -4 -6 -2 -13 4 -7 7 -29 18 -48 26 -19 9 -27 15
-19 16 8 0 30 -9 48 -20z m2443 4 c-19 -8 -41 -19 -48 -26 -7 -6 -13 -8 -13
-4 0 10 63 46 80 46 8 -1 0 -7 -19 -16z m1134 4 c-57 -21 -105 -58 -140 -110
-19 -29 -35 -48 -35 -42 0 18 57 90 92 117 37 28 75 46 98 46 8 -1 2 -5 -15
-11z m1142 6 c-3 -3 -12 -4 -19 -1 -8 3 -5 6 6 6 11 1 17 -2 13 -5z m-9518
-30 c22 -14 50 -42 64 -62 25 -38 52 -110 45 -118 -3 -2 -10 15 -17 38 -16 54
-51 101 -104 139 -49 36 -41 38 12 3z m2201 23 c0 -2 -10 -12 -22 -23 l-23
-19 19 23 c18 21 26 27 26 19z m5366 -19 c18 -12 39 -34 48 -49 24 -41 19 -47
-7 -8 -12 18 -38 44 -56 56 -19 13 -30 23 -26 23 5 0 23 -10 41 -22z m1659 5
c-16 -8 -43 -27 -60 -42 -27 -23 -28 -24 -10 -2 22 26 74 61 90 61 6 -1 -3 -8
-20 -17z m358 -15 c18 -18 21 -23 7 -12 -14 12 -34 26 -45 32 -11 6 -14 12 -7
12 7 0 27 -15 45 -32z m721 0 c-32 -22 -59 -51 -76 -83 -15 -27 -28 -45 -28
-40 0 38 107 155 142 155 6 0 -12 -15 -38 -32z m318 -1 c51 -39 95 -115 103
-177 l5 -45 -13 51 c-20 77 -62 141 -115 175 -25 16 -41 29 -35 29 6 0 31 -15
55 -33z m-8120 -13 c-45 -38 -67 -74 -88 -139 -7 -24 -13 -31 -13 -19 -1 36
57 137 96 167 51 39 54 34 5 -9z m856 16 c-7 -10 -14 -17 -17 -15 -4 4 18 35
25 35 2 0 -1 -9 -8 -20z m123 -9 c-74 -69 -68 -193 12 -241 18 -11 26 -20 19
-20 -7 0 -28 15 -48 33 -60 55 -60 158 0 222 18 19 37 35 41 35 4 0 -7 -13
-24 -29z m4238 -5 c-3 -3 -11 5 -18 17 -13 21 -12 21 5 5 10 -10 16 -20 13
-22z m-3834 14 c3 -6 -1 -7 -9 -4 -18 7 -21 14 -7 14 6 0 13 -4 16 -10z m-885
-53 c0 -12 0 -11 -24 28 l-17 30 20 -24 c12 -13 21 -28 21 -34z m-3460 23 c-6
-11 -13 -20 -16 -20 -2 0 0 9 6 20 6 11 13 20 16 20 2 0 0 -9 -6 -20z m117 2
c-9 -10 -30 -43 -47 -73 -31 -57 -42 -61 -14 -6 19 38 63 97 71 97 3 0 -1 -8
-10 -18z m5232 -31 c10 -14 22 -37 25 -51 4 -14 -4 -6 -19 20 -15 25 -34 54
-43 65 -16 19 -16 19 1 6 10 -8 26 -26 36 -40z m2281 45 c0 -2 -8 -10 -17 -17
-16 -13 -17 -12 -4 4 13 16 21 21 21 13z m-8040 -9 c0 -2 -10 -12 -22 -23
l-23 -19 19 23 c18 21 26 27 26 19z m3228 -17 c-7 -10 -14 -17 -17 -15 -4 4
18 35 25 35 2 0 -1 -9 -8 -20z m4723 3 c13 -16 12 -17 -3 -4 -10 7 -18 15 -18
17 0 8 8 3 21 -13z m2010 0 c13 -16 12 -17 -3 -4 -10 7 -18 15 -18 17 0 8 8 3
21 -13z m-4738 -8 c-3 -9 -8 -14 -10 -11 -3 3 -2 9 2 15 9 16 15 13 8 -4z
m645 -10 c-3 -3 -9 2 -12 12 -6 14 -5 15 5 6 7 -7 10 -15 7 -18z m5802 -19 c0
-12 -5 -7 -19 24 -11 24 -11 24 3 6 9 -11 16 -24 16 -30z m-10611 -15 c0 -14
-1 -14 -6 -1 -3 8 -10 24 -15 35 -9 20 -9 20 6 1 9 -11 16 -27 15 -35z m7934
14 c-9 -19 -18 -33 -21 -31 -4 5 26 66 33 66 3 0 -3 -16 -12 -35z m1523 -20
c9 -39 0 -30 -15 15 -6 19 -7 30 -2 25 5 -6 13 -23 17 -40z m-11271 25 c3 -5
1 -10 -4 -10 -6 0 -11 5 -11 10 0 6 2 10 4 10 3 0 8 -4 11 -10z m1136 -17
c-12 -20 -14 -14 -5 12 4 9 9 14 11 11 3 -2 0 -13 -6 -23z m3398 -7 c-3 -3
-11 5 -18 17 -13 21 -12 21 5 5 10 -10 16 -20 13 -22z m418 12 c-3 -8 -6 -5
-6 6 -1 11 2 17 5 13 3 -3 4 -12 1 -19z m-4474 5 c-7 -2 -21 -2 -30 0 -10 3
-4 5 12 5 17 0 24 -2 18 -5z m227 4 c0 -2 -10 -12 -22 -23 l-23 -19 19 23 c18
21 26 27 26 19z m8667 -59 c-3 -7 -5 -2 -5 12 0 14 2 19 5 13 2 -7 2 -19 0
-25z m-8717 17 c0 -7 -77 -45 -92 -45 -7 0 10 11 37 24 59 29 55 27 55 21z
m6957 -17 c-3 -8 -6 -5 -6 6 -1 11 2 17 5 13 3 -3 4 -12 1 -19z m3770 -10 c-3
-7 -5 -2 -5 12 0 14 2 19 5 13 2 -7 2 -19 0 -25z m-3660 0 c-3 -8 -6 -5 -6 6
-1 11 2 17 5 13 3 -3 4 -12 1 -19z m1553 -68 l0 -80 -187 2 -188 2 169 3 c104
2 175 8 183 14 8 7 13 35 13 75 0 35 2 64 5 64 3 0 5 -36 5 -80z m-8163 48
c-3 -8 -6 -5 -6 6 -1 11 2 17 5 13 3 -3 4 -12 1 -19z m720 0 c-3 -8 -6 -5 -6
6 -1 11 2 17 5 13 3 -3 4 -12 1 -19z m1060 0 c-3 -8 -6 -5 -6 6 -1 11 2 17 5
13 3 -3 4 -12 1 -19z m6924 -9 c-5 -13 -10 -19 -10 -12 -1 15 10 45 15 40 3
-2 0 -15 -5 -28z m2006 9 c-3 -8 -6 -5 -6 6 -1 11 2 17 5 13 3 -3 4 -12 1 -19z
m-9030 -20 c-3 -7 -5 -2 -5 12 0 14 2 19 5 13 2 -7 2 -19 0 -25z m4830 -5 c-3
-10 -5 -4 -5 12 0 17 2 24 5 18 2 -7 2 -21 0 -30z m3663 -33 l0 -70 -187 2
-188 2 169 3 c104 2 175 8 183 14 8 7 13 33 13 65 0 30 2 54 5 54 3 0 5 -31 5
-70z m-10756 46 c-17 -13 -18 -18 -7 -45 16 -43 7 -39 -17 8 -18 37 -19 40 -2
44 37 10 46 7 26 -7z m2813 -18 c-3 -7 -5 -2 -5 12 0 14 2 19 5 13 2 -7 2 -19
0 -25z m590 10 c-3 -8 -6 -5 -6 6 -1 11 2 17 5 13 3 -3 4 -12 1 -19z m730 -10
c-3 -7 -5 -2 -5 12 0 14 2 19 5 13 2 -7 2 -19 0 -25z m2440 -461 c-1 -89 -3
-13 -3 168 0 182 2 254 3 162 2 -93 2 -241 0 -330z m-7077 476 c-8 -3 -21 -10
-27 -16 -9 -7 -13 -5 -13 7 0 11 8 16 28 15 15 0 21 -3 12 -6z m359 -20 l13
-28 -29 25 c-15 14 -30 26 -32 28 -2 1 5 2 16 2 12 0 25 -11 32 -27z m818 -5
c-3 -7 -5 -2 -5 12 0 14 2 19 5 13 2 -7 2 -19 0 -25z m5360 10 c-3 -8 -6 -5
-6 6 -1 11 2 17 5 13 3 -3 4 -12 1 -19z m5150 0 c-3 -8 -6 -5 -6 6 -1 11 2 17
5 13 3 -3 4 -12 1 -19z m740 -10 c-3 -7 -5 -2 -5 12 0 14 2 19 5 13 2 -7 2
-19 0 -25z m-4720 -450 c-1 -90 -3 -19 -3 157 0 176 2 249 3 163 2 -86 2 -230
0 -320z m4080 450 c-3 -8 -6 -5 -6 6 -1 11 2 17 5 13 3 -3 4 -12 1 -19z
m-10710 -10 c-3 -8 -6 -5 -6 6 -1 11 2 17 5 13 3 -3 4 -12 1 -19z m643 -28 l0
-50 -280 0 -280 0 0 26 0 26 18 -21 c17 -21 22 -21 272 -19 l255 3 3 43 c4 58
12 53 12 -8z m97 28 c-3 -8 -6 -5 -6 6 -1 11 2 17 5 13 3 -3 4 -12 1 -19z
m1060 -25 c-3 -10 -5 -2 -5 17 0 19 2 27 5 18 2 -10 2 -26 0 -35z m3146 -38
c12 -3 130 -4 262 -3 l239 3 13 25 13 25 0 -32 0 -33 -280 0 -280 0 2 53 c1
50 2 50 5 10 3 -34 9 -44 26 -48z m-3766 28 c-3 -10 -5 -2 -5 17 0 19 2 27 5
18 2 -10 2 -26 0 -35z m520 -5 c-2 -13 -4 -5 -4 17 -1 22 1 32 4 23 2 -10 2
-28 0 -40z m1237 -17 c9 -8 93 -10 262 -9 l248 3 13 25 13 25 0 -32 0 -33
-280 0 -280 0 2 48 c1 35 2 39 5 15 2 -17 10 -36 17 -42z m5663 47 c-3 -8 -6
-5 -6 6 -1 11 2 17 5 13 3 -3 4 -12 1 -19z m100 -10 c-3 -7 -5 -2 -5 12 0 14
2 19 5 13 2 -7 2 -19 0 -25z m-5880 -15 c-3 -10 -5 -4 -5 12 0 17 2 24 5 18 2
-7 2 -21 0 -30z m750 0 c-3 -10 -5 -4 -5 12 0 17 2 24 5 18 2 -7 2 -21 0 -30z
m1250 5 c-3 -7 -5 -2 -5 12 0 14 2 19 5 13 2 -7 2 -19 0 -25z m750 -15 c-3
-10 -5 -4 -5 12 0 17 2 24 5 18 2 -7 2 -21 0 -30z m-6201 -120 c-4 -4 -76 132
-76 143 0 5 18 -24 40 -65 22 -41 38 -76 36 -78z m621 100 c-3 -10 -5 -4 -5
12 0 17 2 24 5 18 2 -7 2 -21 0 -30z m10610 -15 c-2 -13 -4 -5 -4 17 -1 22 1
32 4 23 2 -10 2 -28 0 -40z m760 15 c-3 -10 -5 -4 -5 12 0 17 2 24 5 18 2 -7
2 -21 0 -30z m-10610 -45 c-2 -13 -4 -3 -4 22 0 25 2 35 4 23 2 -13 2 -33 0
-45z m7840 10 c-2 -13 -4 -5 -4 17 -1 22 1 32 4 23 2 -10 2 -28 0 -40z m-6780
-65 c-2 -21 -4 -4 -4 37 0 41 2 58 4 38 2 -21 2 -55 0 -75z m9450 -5 c-2 -24
-4 -7 -4 37 0 44 2 63 4 43 2 -21 2 -57 0 -80z m-11762 12 c25 -49 43 -90 40
-90 -3 0 -25 41 -50 90 -25 50 -43 90 -40 90 3 0 25 -40 50 -90z m4628 83 c-7
-2 -21 -2 -30 0 -10 3 -4 5 12 5 17 0 24 -2 18 -5z m-174 -40 c19 -13 30 -23
25 -23 -9 0 -84 51 -84 57 0 5 11 -1 59 -34z m284 30 c-7 -2 -21 -2 -30 0 -10
3 -4 5 12 5 17 0 24 -2 18 -5z m574 -75 c-2 -18 -4 -6 -4 27 0 33 2 48 4 33 2
-15 2 -42 0 -60z m5890 0 c-2 -18 -4 -6 -4 27 0 33 2 48 4 33 2 -15 2 -42 0
-60z m-7890 5 c-2 -16 -4 -5 -4 22 0 28 2 40 4 28 2 -13 2 -35 0 -50z m1520
61 c-3 -3 -12 -4 -19 -1 -8 3 -5 6 6 6 11 1 17 -2 13 -5z m128 -34 c3 -6 -1
-7 -9 -4 -18 7 -21 14 -7 14 6 0 13 -4 16 -10z m3165 -13 c0 -2 -10 -12 -22
-23 l-23 -19 19 23 c18 21 26 27 26 19z m2010 0 c0 -2 -12 -14 -27 -28 l-28
-24 24 28 c23 25 31 32 31 24z m-9527 -29 c-6 -7 -13 -20 -16 -28 -3 -9 -6 -3
-6 13 -1 19 4 27 15 27 12 0 14 -4 7 -12z m2819 -30 c-5 -71 -10 -77 -11 -15
0 31 2 57 7 57 4 0 6 -19 4 -42z m1175 36 c-3 -3 -12 -4 -19 -1 -8 3 -5 6 6 6
11 1 17 -2 13 -5z m423 -19 c14 -19 14 -19 -2 -6 -10 7 -18 18 -18 24 0 6 1 8
3 6 1 -2 9 -13 17 -24z m410 21 c0 -3 -4 -8 -10 -11 -5 -3 -10 -1 -10 4 0 6 5
11 10 11 6 0 10 -2 10 -4z m2883 -3 c-7 -2 -19 -2 -25 0 -7 3 -2 5 12 5 14 0
19 -2 13 -5z m355 -85 l-2 -93 -3 80 c-2 43 -9 85 -15 92 -8 10 -6 13 6 13 14
0 16 -13 14 -92z m419 45 c-3 -10 -5 -2 -5 17 0 19 2 27 5 18 2 -10 2 -26 0
-35z m1236 40 c-7 -2 -19 -2 -25 0 -7 3 -2 5 12 5 14 0 19 -2 13 -5z m355 -65
l-2 -73 -3 60 c-2 32 -9 65 -15 72 -8 10 -6 13 6 13 13 0 16 -12 14 -72z
m-5980 55 c-10 -2 -28 -2 -40 0 -13 2 -5 4 17 4 22 1 32 -1 23 -4z m3532 -15
c-25 -13 -55 -38 -67 -57 -13 -19 -23 -29 -23 -24 0 30 85 103 120 103 8 0 -6
-10 -30 -22z m2010 0 c-49 -25 -89 -76 -91 -117 -2 -23 -2 -24 -6 -4 -9 49 74
142 127 143 8 0 -6 -10 -30 -22z m-5427 5 c-7 -2 -21 -2 -30 0 -10 3 -4 5 12
5 17 0 24 -2 18 -5z m6284 -40 c-3 -10 -5 -2 -5 17 0 19 2 27 5 18 2 -10 2
-26 0 -35z m760 -5 c-2 -13 -4 -5 -4 17 -1 22 1 32 4 23 2 -10 2 -28 0 -40z
m-11370 5 c-3 -10 -5 -4 -5 12 0 17 2 24 5 18 2 -7 2 -21 0 -30z m4400 20 c35
-16 73 -65 73 -93 0 -8 -9 3 -19 26 -17 37 -40 55 -101 77 -11 4 -11 6 -2 6 8
1 30 -7 49 -16z m530 -45 c-2 -13 -4 -5 -4 17 -1 22 1 32 4 23 2 -10 2 -28 0
-40z m4656 37 c-3 -9 -8 -14 -10 -11 -3 3 -2 9 2 15 9 16 15 13 8 -4z m-7876
-47 c-2 -13 -4 -5 -4 17 -1 22 1 32 4 23 2 -10 2 -28 0 -40z m2851 27 c-3 -3
-9 2 -12 12 -6 14 -5 15 5 6 7 -7 10 -15 7 -18z m-3371 -37 c-2 -13 -4 -5 -4
17 -1 22 1 32 4 23 2 -10 2 -28 0 -40z m7520 0 c-3 -7 -5 -2 -5 12 0 14 2 19
5 13 2 -7 2 -19 0 -25z m-9273 6 c3 -8 2 -12 -4 -9 -6 3 -10 10 -10 16 0 14 7
11 14 -7z m2373 -16 c-3 -7 -5 -2 -5 12 0 14 2 19 5 13 2 -7 2 -19 0 -25z
m1020 10 c-3 -8 -6 -5 -6 6 -1 11 2 17 5 13 3 -3 4 -12 1 -19z m2000 0 c-3 -8
-6 -5 -6 6 -1 11 2 17 5 13 3 -3 4 -12 1 -19z m-4720 -10 c-3 -8 -6 -5 -6 6
-1 11 2 17 5 13 3 -3 4 -12 1 -19z m7440 -10 c-3 -8 -6 -5 -6 6 -1 11 2 17 5
13 3 -3 4 -12 1 -19z m3070 0 c-3 -8 -6 -5 -6 6 -1 11 2 17 5 13 3 -3 4 -12 1
-19z m100 0 c-3 -8 -6 -5 -6 6 -1 11 2 17 5 13 3 -3 4 -12 1 -19z m-11143 -4
c3 -8 2 -12 -4 -9 -6 3 -10 10 -10 16 0 14 7 11 14 -7z m5363 -6 c-3 -8 -6 -5
-6 6 -1 11 2 17 5 13 3 -3 4 -12 1 -19z m6320 0 c-3 -8 -6 -5 -6 6 -1 11 2 17
5 13 3 -3 4 -12 1 -19z m100 0 c-3 -8 -6 -5 -6 6 -1 11 2 17 5 13 3 -3 4 -12
1 -19z m-11873 -65 c20 -40 34 -73 31 -73 -5 0 -75 136 -75 146 0 12 6 1 44
-73z m8163 40 c-3 -10 -5 -4 -5 12 0 17 2 24 5 18 2 -7 2 -21 0 -30z m1146
-108 c28 -31 62 -54 102 -70 33 -14 53 -25 45 -25 -33 0 -117 49 -153 90 -39
43 -77 112 -76 140 0 8 9 -8 20 -37 11 -29 39 -73 62 -98z m-8616 3 c10 -12
36 -34 57 -49 21 -16 35 -29 31 -29 -4 0 -28 15 -51 33 -43 31 -104 130 -104
166 0 9 11 -10 24 -42 14 -32 33 -68 43 -79z m4400 80 c-2 -13 -4 -5 -4 17 -1
22 1 32 4 23 2 -10 2 -28 0 -40z m260 30 c-3 -8 -6 -5 -6 6 -1 11 2 17 5 13 3
-3 4 -12 1 -19z m-3619 -63 c0 -5 -6 4 -13 20 -8 17 -14 37 -14 45 0 8 7 -1
14 -20 7 -19 13 -39 13 -45z m472 30 c-16 -47 -23 -40 -8 8 6 20 13 35 16 33
2 -3 -1 -21 -8 -41z m107 23 c-3 -8 -6 -5 -6 6 -1 11 2 17 5 13 3 -3 4 -12 1
-19z m-2177 -48 c17 -33 28 -60 25 -60 -2 0 -18 27 -35 60 -17 33 -28 60 -25
60 2 0 18 -27 35 -60z m5373 -39 c9 -12 9 -13 -1 -7 -15 9 -52 80 -52 98 0 7
10 -7 21 -31 11 -25 25 -52 32 -60z m4554 52 c-3 -10 -5 -2 -5 17 0 19 2 27 5
18 2 -10 2 -26 0 -35z m-6519 -91 c15 -13 45 -32 67 -43 22 -10 33 -19 24 -19
-34 0 -114 65 -146 120 -18 30 -33 59 -33 65 0 5 14 -15 30 -45 17 -30 43 -66
58 -78z m4509 96 c-3 -7 -5 -2 -5 12 0 14 2 19 5 13 2 -7 2 -19 0 -25z m3810
10 c-3 -8 -6 -5 -6 6 -1 11 2 17 5 13 3 -3 4 -12 1 -19z m-3671 -104 c10 -15
36 -35 59 -45 22 -10 33 -19 25 -19 -23 0 -77 36 -95 64 -9 14 -19 45 -21 68
l-3 43 9 -42 c5 -23 17 -54 26 -69z m2499 69 c-3 -16 -10 -32 -15 -37 -5 -5
-4 7 2 27 13 43 23 50 13 10z m-5728 -52 c-29 -44 -97 -81 -155 -86 -20 -1
-28 -1 -17 2 72 15 117 38 149 74 20 21 36 47 37 57 0 11 2 12 6 4 3 -7 -6
-30 -20 -51z m2580 27 c-3 -7 -5 -2 -5 12 0 14 2 19 5 13 2 -7 2 -19 0 -25z
m2630 10 c-3 -8 -6 -5 -6 6 -1 11 2 17 5 13 3 -3 4 -12 1 -19z m1573 12 c0
-33 -138 -140 -181 -140 -7 0 17 15 52 33 43 21 74 46 94 74 33 46 35 48 35
33z m-2576 -16 c3 -8 2 -12 -4 -9 -6 3 -10 10 -10 16 0 14 7 11 14 -7z m-7410
-34 c-6 -5 -24 21 -24 34 0 6 6 1 14 -10 8 -10 12 -21 10 -24z m411 10 c-15
-30 -88 -90 -108 -90 -6 0 10 13 35 29 26 17 54 44 63 60 8 17 18 31 21 31 2
0 -3 -14 -11 -30z m1224 0 c11 -24 11 -24 -3 -6 -9 11 -16 24 -16 30 0 12 5 7
19 -24z m2000 0 c11 -24 11 -24 -3 -6 -9 11 -16 24 -16 30 0 12 5 7 19 -24z
m3281 21 c0 -15 -50 -70 -74 -82 -11 -6 -4 3 16 20 20 17 40 40 43 51 7 21 15
27 15 11z m2499 -21 c11 -24 11 -24 -3 -6 -9 11 -16 24 -16 30 0 12 5 7 19
-24z m215 -71 c34 -16 55 -29 48 -29 -39 0 -142 72 -164 115 -5 11 5 3 23 -19
19 -22 58 -51 93 -67z m-10820 75 c3 -8 2 -12 -4 -9 -6 3 -10 10 -10 16 0 14
7 11 14 -7z m7152 -78 c34 -14 35 -16 9 -11 -38 8 -72 42 -80 80 -5 25 -3 23
13 -11 14 -29 31 -46 58 -58z m2468 68 c3 -8 2 -12 -4 -9 -6 3 -10 10 -10 16
0 14 7 11 14 -7z m-9035 -10 c-15 -18 -109 -74 -124 -74 -5 0 15 14 45 31 30
16 62 36 70 44 19 20 26 19 9 -1z m2826 -2 c-50 -36 -112 -72 -124 -72 -8 0 8
11 36 25 28 14 58 34 68 45 10 11 21 18 24 15 3 -4 1 -9 -4 -13z m70 -2 c10
-11 16 -20 13 -20 -3 0 -13 9 -23 20 -10 11 -16 20 -13 20 3 0 13 -9 23 -20z
m1918 -3 c-42 -34 -76 -57 -87 -57 -6 0 11 13 36 29 25 16 49 34 52 40 4 6 12
11 17 11 6 0 -2 -10 -18 -23z m78 6 c13 -16 12 -17 -3 -4 -10 7 -18 15 -18 17
0 8 8 3 21 -13z m3698 0 c-17 -20 -99 -73 -113 -73 -6 1 5 9 24 20 19 10 49
30 65 44 35 30 43 33 24 9z m71 2 c11 -13 10 -14 -4 -9 -9 3 -16 10 -16 15 0
13 6 11 20 -6z m-5450 1 c0 -2 -8 -10 -17 -17 -16 -13 -17 -12 -4 4 13 16 21
21 21 13z m1175 -16 c10 -11 16 -20 13 -20 -3 0 -13 9 -23 20 -10 11 -16 20
-13 20 3 0 13 -9 23 -20z m5109 -1 c-10 -11 -28 -25 -39 -31 -11 -6 -4 4 15
20 41 36 51 41 24 11z m-8790 -58 c-4 -5 -70 37 -84 54 -7 9 10 1 37 -17 28
-18 49 -35 47 -37z m2591 59 c3 -6 -1 -7 -9 -4 -18 7 -21 14 -7 14 6 0 13 -4
16 -10z m7375 6 c0 -2 -8 -10 -17 -17 -16 -13 -17 -12 -4 4 13 16 21 21 21 13z
m-1560 -50 c19 -8 29 -15 22 -16 -20 0 -67 26 -83 47 -13 17 -13 17 6 1 12 -9
36 -24 55 -32z m-9659 17 c13 -16 12 -17 -3 -4 -17 13 -22 21 -14 21 2 0 10
-8 17 -17z m3908 -9 c14 -12 -19 -1 -35 12 -18 14 -18 14 6 3 14 -6 27 -13 29
-15z m3575 10 c3 -8 2 -12 -4 -9 -6 3 -10 10 -10 16 0 14 7 11 14 -7z m2010 0
c3 -8 2 -12 -4 -9 -6 3 -10 10 -10 16 0 14 7 11 14 -7z m-5044 2 c0 -2 -8 -10
-17 -17 -16 -13 -17 -12 -4 4 13 16 21 21 21 13z m595 -32 c22 -7 31 -13 20
-13 -22 -1 -105 34 -105 44 0 3 10 0 23 -6 12 -7 40 -18 62 -25z m3595 1 c19
-19 32 -35 29 -35 -3 0 -20 16 -39 35 -19 19 -32 35 -29 35 3 0 20 -16 39 -35z
m-9154 -26 c14 -28 24 -53 22 -55 -2 -2 -16 21 -31 51 -15 30 -25 55 -22 55 3
0 16 -23 31 -51z m1639 9 c22 -24 29 -33 15 -21 -26 22 -42 20 -53 -7 -3 -8
-6 4 -6 28 -1 23 0 42 2 42 2 0 21 -19 42 -42z m1716 25 c13 -16 12 -17 -3 -4
-17 13 -22 21 -14 21 2 0 10 -8 17 -17z m6379 10 c0 -5 -17 -21 -38 -37 l-37
-29 34 36 c36 39 41 42 41 30z m1470 -71 c0 -7 -56 36 -75 59 -11 12 1 5 28
-16 26 -22 47 -41 47 -43z m500 75 c0 -2 -15 -16 -32 -33 l-33 -29 29 33 c28
30 36 37 36 29z m-10560 -11 c0 -3 -15 -14 -32 -26 l-33 -22 30 26 c31 27 35
29 35 22z m2829 1 c-2 -1 -15 -11 -29 -22 l-25 -20 19 23 c11 12 24 22 29 22
6 0 8 -1 6 -3z m496 -7 c13 -6 15 -9 5 -9 -8 0 -22 4 -30 9 -18 12 -2 12 25 0z
m1495 7 c0 -2 -10 -12 -22 -23 l-23 -19 19 23 c18 21 26 27 26 19z m4505 -12
c-16 -8 -41 -14 -55 -14 -17 0 -11 5 20 13 59 17 72 18 35 1z m-10340 -26 c9
-17 15 -33 13 -35 -3 -2 -12 12 -21 31 -21 43 -13 47 8 4z m455 -15 c0 -3 -13
4 -30 16 -16 12 -30 24 -30 26 0 3 14 -4 30 -16 17 -12 30 -24 30 -26z m7456
14 l29 -33 -32 29 c-31 28 -38 36 -30 36 2 0 16 -15 33 -32z m-7279 16 c-3 -3
-12 -4 -19 -1 -8 3 -5 6 6 6 11 1 17 -2 13 -5z m160 0 c-3 -3 -12 -4 -19 -1
-8 3 -5 6 6 6 11 1 17 -2 13 -5z m890 0 c-3 -3 -12 -4 -19 -1 -8 3 -5 6 6 6
11 1 17 -2 13 -5z m140 0 c-3 -3 -12 -4 -19 -1 -8 3 -5 6 6 6 11 1 17 -2 13
-5z m1646 -1 c-7 -2 -19 -2 -25 0 -7 3 -2 5 12 5 14 0 19 -2 13 -5z m144 1
c-3 -3 -12 -4 -19 -1 -8 3 -5 6 6 6 11 1 17 -2 13 -5z m786 -1 c-7 -2 -19 -2
-25 0 -7 3 -2 5 12 5 14 0 19 -2 13 -5z m397 4 c0 -2 -10 -12 -22 -23 l-23
-19 19 23 c18 21 26 27 26 19z m465 -17 c10 -11 16 -20 13 -20 -3 0 -13 9 -23
20 -10 11 -16 20 -13 20 3 0 13 -9 23 -20z m352 14 c-3 -3 -12 -4 -19 -1 -8 3
-5 6 6 6 11 1 17 -2 13 -5z m2490 0 c-3 -3 -12 -4 -19 -1 -8 3 -5 6 6 6 11 1
17 -2 13 -5z m186 -1 c-7 -2 -19 -2 -25 0 -7 3 -2 5 12 5 14 0 19 -2 13 -5z
m187 -30 c0 -34 -1 -35 -14 -18 -13 17 -16 18 -42 5 -50 -25 -50 -24 -4 13 25
19 48 36 53 36 4 1 7 -16 7 -36z m917 31 c-3 -3 -12 -4 -19 -1 -8 3 -5 6 6 6
11 1 17 -2 13 -5z m720 0 c-3 -3 -12 -4 -19 -1 -8 3 -5 6 6 6 11 1 17 -2 13
-5z m373 -31 c0 -34 -1 -35 -14 -18 -12 17 -17 18 -42 6 -28 -12 -27 -11 6 18
19 17 38 30 43 31 4 0 7 -17 7 -37z m-7219 10 c13 -16 12 -17 -3 -4 -10 7 -18
15 -18 17 0 8 8 3 21 -13z m286 11 c-3 -3 -12 -4 -19 -1 -8 3 -5 6 6 6 11 1
17 -2 13 -5z m2000 0 c-3 -3 -12 -4 -19 -1 -8 3 -5 6 6 6 11 1 17 -2 13 -5z
m1834 -11 c13 -16 12 -17 -3 -4 -10 7 -18 15 -18 17 0 8 8 3 21 -13z m2836 11
c-3 -3 -12 -4 -19 -1 -8 3 -5 6 6 6 11 1 17 -2 13 -5z m-6013 -33 c-2 -3 -12
3 -22 13 -16 17 -16 18 5 5 12 -7 20 -15 17 -18z m5727 12 c13 -16 12 -17 -3
-4 -10 7 -18 15 -18 17 0 8 8 3 21 -13z m-837 -22 c-2 -3 -12 3 -22 13 -16 17
-16 18 5 5 12 -7 20 -15 17 -18z m-4359 9 c-3 -5 -12 -10 -18 -10 -7 0 -6 4 3
10 19 12 23 12 15 0z m594 -16 c14 -12 -19 -1 -35 12 -18 14 -18 14 6 3 14 -6
27 -13 29 -15z m4191 21 c0 -2 -10 -9 -22 -15 -22 -11 -22 -10 -4 4 21 17 26
19 26 11z m-8615 -15 c-3 -5 -12 -10 -18 -10 -7 0 -6 4 3 10 19 12 23 12 15 0z
m694 -16 c14 -12 -19 -1 -35 12 -18 14 -18 14 6 3 14 -6 27 -13 29 -15z m327
11 c-11 -8 -25 -15 -30 -15 -6 1 0 7 14 15 32 19 40 18 16 0z m6063 -11 c14
-12 -19 -1 -35 12 -18 14 -18 14 6 3 14 -6 27 -13 29 -15z m3116 8 c-3 -3 -11
0 -18 7 -9 10 -8 11 6 5 10 -3 15 -9 12 -12z m351 3 c-11 -8 -25 -15 -30 -15
-6 1 0 7 14 15 32 19 40 18 16 0z m-1461 -13 c-3 -3 -11 0 -18 7 -9 10 -8 11
6 5 10 -3 15 -9 12 -12z m-5668 -8 c-3 -3 -12 -4 -19 -1 -8 3 -5 6 6 6 11 1
17 -2 13 -5z m1340 0 c-3 -3 -12 -4 -19 -1 -8 3 -5 6 6 6 11 1 17 -2 13 -5z
m-6519 -11 c-10 -2 -28 -2 -40 0 -13 2 -5 4 17 4 22 1 32 -1 23 -4z m835 0
c-13 -2 -35 -2 -50 0 -16 2 -5 4 22 4 28 0 40 -2 28 -4z m624 1 c-3 -3 -12 -4
-19 -1 -8 3 -5 6 6 6 11 1 17 -2 13 -5z m190 0 c-3 -3 -12 -4 -19 -1 -8 3 -5
6 6 6 11 1 17 -2 13 -5z m880 0 c-3 -3 -12 -4 -19 -1 -8 3 -5 6 6 6 11 1 17
-2 13 -5z m821 -1 c-10 -2 -28 -2 -40 0 -13 2 -5 4 17 4 22 1 32 -1 23 -4z
m929 1 c-3 -3 -12 -4 -19 -1 -8 3 -5 6 6 6 11 1 17 -2 13 -5z m200 0 c-3 -3
-12 -4 -19 -1 -8 3 -5 6 6 6 11 1 17 -2 13 -5z m756 -1 c-7 -2 -19 -2 -25 0
-7 3 -2 5 12 5 14 0 19 -2 13 -5z m1044 1 c-3 -3 -12 -4 -19 -1 -8 3 -5 6 6 6
11 1 17 -2 13 -5z m200 0 c-3 -3 -12 -4 -19 -1 -8 3 -5 6 6 6 11 1 17 -2 13
-5z m641 -1 c-10 -2 -28 -2 -40 0 -13 2 -5 4 17 4 22 1 32 -1 23 -4z m630 0
c-10 -2 -28 -2 -40 0 -13 2 -5 4 17 4 22 1 32 -1 23 -4z m695 0 c-13 -2 -33
-2 -45 0 -13 2 -3 4 22 4 25 0 35 -2 23 -4z m474 1 c-3 -3 -12 -4 -19 -1 -8 3
-5 6 6 6 11 1 17 -2 13 -5z m471 -1 c-10 -2 -28 -2 -40 0 -13 2 -5 4 17 4 22
1 32 -1 23 -4z m1529 1 c-3 -3 -12 -4 -19 -1 -8 3 -5 6 6 6 11 1 17 -2 13 -5z
m236 -1 c-7 -2 -19 -2 -25 0 -7 3 -2 5 12 5 14 0 19 -2 13 -5z m245 0 c-10 -2
-28 -2 -40 0 -13 2 -5 4 17 4 22 1 32 -1 23 -4z m-9830 -10 c-16 -2 -40 -2
-55 0 -16 2 -3 4 27 4 30 0 43 -2 28 -4z m1055 0 c-13 -2 -33 -2 -45 0 -13 2
-3 4 22 4 25 0 35 -2 23 -4z m1775 0 c-16 -2 -40 -2 -55 0 -16 2 -3 4 27 4 30
0 43 -2 28 -4z m960 0 c-16 -2 -40 -2 -55 0 -16 2 -3 4 27 4 30 0 43 -2 28 -4z
m1040 0 c-16 -2 -40 -2 -55 0 -16 2 -3 4 27 4 30 0 43 -2 28 -4z m2665 0 c-18
-2 -48 -2 -65 0 -18 2 -4 4 32 4 36 0 50 -2 33 -4z m1125 0 c-16 -2 -40 -2
-55 0 -16 2 -3 4 27 4 30 0 43 -2 28 -4z m880 0 c-15 -2 -42 -2 -60 0 -18 2
-6 4 27 4 33 0 48 -2 33 -4z m1080 0 c-10 -2 -28 -2 -40 0 -13 2 -5 4 17 4 22
1 32 -1 23 -4z m-1980 -120 c-10 -2 -28 -2 -40 0 -13 2 -5 4 17 4 22 1 32 -1
23 -4z m13 -70 c-12 -20 -14 -14 -5 12 4 9 9 14 11 11 3 -2 0 -13 -6 -23z
m-134 -40 c-14 -27 -32 -65 -42 -86 -10 -21 -20 -36 -22 -33 -5 5 75 166 82
166 3 0 -5 -21 -18 -47z m104 -30 c-12 -20 -14 -14 -5 12 4 9 9 14 11 11 3 -2
0 -13 -6 -23z m-108 -160 c-13 -2 -33 -2 -45 0 -13 2 -3 4 22 4 25 0 35 -2 23
-4z"/>
</g>
</svg>
