<?xml version="1.0" standalone="no"?>
<!DOCTYPE svg PUBLIC "-//W3C//DTD SVG 20010904//EN"
 "http://www.w3.org/TR/2001/REC-SVG-20010904/DTD/svg10.dtd">
<svg version="1.0" xmlns="http://www.w3.org/2000/svg"
 width="16.000000pt" height="16.000000pt" viewBox="0 0 16.000000 16.000000"
 preserveAspectRatio="xMidYMid meet">
<metadata>
Created by potrace 1.11, written by Peter Selinger 2001-2013
</metadata>
<g transform="translate(0.000000,16.000000) scale(0.000845,-0.000845)"
fill="#000000" stroke="none">
<path d="M437 15708 c-220 -219 -343 -419 -410 -662 -18 -67 -22 -107 -22
-236 0 -188 18 -269 100 -436 89 -183 242 -367 448 -540 l88 -74 3069 0 3068
0 83 -61 c244 -181 420 -434 491 -704 29 -110 36 -309 15 -430 -52 -295 -220
-596 -515 -922 l-74 -82 -1413 -1 -1414 0 -77 -35 c-287 -131 -531 -396 -653
-710 -89 -228 -115 -401 -108 -725 2 -129 8 -245 13 -257 5 -12 376 -425 824
-919 l815 -898 1234 -1180 c679 -650 1249 -1189 1268 -1199 52 -27 231 -85
335 -108 136 -29 322 -36 428 -15 89 18 207 67 264 111 l34 26 124 -30 c283
-70 531 -96 913 -96 297 0 442 10 665 46 467 74 858 242 1140 492 47 41 348
361 670 710 322 350 588 636 593 636 4 1 7 -363 7 -807 l0 -808 63 -45 c380
-276 805 -357 1167 -225 186 69 395 238 553 447 l57 76 0 1684 1 1684 53 57
52 57 120 -14 c387 -44 980 -54 1334 -21 1900 176 2955 1098 3091 2703 17 202
7 535 -20 685 -87 491 -280 934 -580 1332 -474 629 -1179 1115 -2121 1463
l-145 53 -1758 0 -1759 0 -101 -77 c-477 -364 -636 -783 -461 -1209 39 -96
105 -211 171 -297 66 -87 224 -248 311 -318 l73 -59 1675 0 1675 0 77 -51
c196 -132 394 -314 515 -475 142 -189 212 -360 224 -549 22 -352 -217 -695
-698 -1000 l-102 -65 -1567 0 c-1312 0 -1573 -2 -1601 -14 -19 -7 -95 -23
-169 -35 -441 -70 -807 -229 -1049 -457 -45 -42 -545 -613 -1113 -1270 -810
-937 -1035 -1191 -1044 -1182 -7 7 -276 328 -599 712 l-587 700 54 44 c106 89
325 319 410 432 115 153 183 263 277 450 174 344 289 725 361 1195 28 179 38
597 21 808 -53 626 -263 1195 -612 1657 -370 490 -903 871 -1567 1121 l-102
39 -3230 0 -3230 0 -123 -122z"/>
<path d="M1630 11613 c-299 -50 -566 -265 -674 -541 -107 -272 -69 -592 98
-825 62 -88 182 -198 271 -250 41 -25 119 -59 173 -77 86 -30 112 -34 237 -38
119 -3 153 -1 229 17 312 75 560 313 646 621 27 95 36 261 21 360 -58 371
-346 664 -715 729 -57 11 -234 13 -286 4z"/>
<path d="M3300 3380 l0 -700 50 0 50 0 0 325 0 325 193 0 192 0 165 -321 c91
-177 170 -323 176 -325 6 -3 34 -4 61 -2 l51 3 -168 320 -168 320 54 16 c109
34 195 105 238 198 18 39 21 65 21 161 0 110 -1 118 -33 182 -36 74 -79 115
-158 153 -78 37 -156 45 -451 45 l-273 0 0 -700z m649 587 c109 -42 162 -117
169 -238 6 -111 -10 -161 -72 -225 -76 -78 -106 -84 -403 -84 l-243 0 0 286 0
286 253 -4 c206 -4 260 -7 296 -21z"/>
<path d="M14295 4045 c-5 -2 -22 -6 -36 -9 -14 -3 -47 -22 -73 -42 l-48 -36
28 -29 27 -28 41 29 c56 42 92 39 200 -15 122 -62 168 -59 260 16 l37 32 -27
28 c-27 29 -28 29 -48 10 -60 -54 -114 -55 -210 -2 -66 35 -127 54 -151 46z"/>
<path d="M11538 3778 l-3 -153 -62 -3 c-62 -3 -63 -3 -63 -32 0 -29 1 -29 63
-32 l62 -3 5 -360 c3 -246 9 -368 17 -386 38 -85 118 -129 235 -129 l58 0 0
45 0 45 -60 0 c-79 0 -116 20 -141 73 -17 39 -19 70 -19 380 l0 337 110 0 110
0 0 30 0 30 -110 0 -110 0 0 155 0 155 -45 0 -44 0 -3 -152z"/>
<path d="M4804 3630 c-143 -30 -239 -135 -279 -302 -19 -82 -19 -274 0 -356
47 -197 180 -302 385 -302 117 0 217 36 300 109 l35 31 -35 29 -34 29 -35 -30
c-59 -52 -135 -81 -215 -82 -39 -1 -92 5 -119 13 -57 16 -130 78 -158 133 -21
42 -49 153 -49 201 l0 27 330 0 330 0 0 63 c0 82 -24 189 -55 254 -33 66 -116
143 -181 165 -60 21 -165 30 -220 18z m167 -92 c113 -39 189 -153 189 -285 l0
-43 -280 0 c-318 0 -289 -11 -269 95 28 154 126 244 265 245 34 0 76 -5 95
-12z"/>
<path d="M5873 3625 c-65 -14 -145 -61 -163 -95 -19 -35 -30 -22 -30 35 l0 55
-45 0 -45 0 0 -695 0 -695 45 0 45 0 0 286 0 287 46 -43 c73 -67 122 -85 239
-85 83 0 109 4 150 23 127 58 188 179 201 397 11 179 -22 338 -89 428 -68 89
-219 133 -354 102z m192 -94 c121 -55 160 -162 154 -418 -4 -147 -4 -149 -39
-218 -42 -84 -88 -120 -173 -136 -75 -13 -151 2 -205 41 -83 60 -113 150 -114
345 -1 156 12 224 55 296 45 75 111 109 211 109 47 0 84 -7 111 -19z"/>
<path d="M6951 3629 c-62 -12 -122 -44 -164 -86 l-37 -36 0 56 0 57 -50 0 -50
0 0 -470 0 -470 50 0 49 0 3 343 3 342 27 51 c51 97 130 139 247 132 61 -3 75
-8 111 -37 l42 -34 36 36 36 36 -25 20 c-36 30 -81 50 -140 61 -59 11 -77 11
-138 -1z"/>
<path d="M7620 3627 c-178 -40 -272 -183 -286 -432 -14 -252 71 -432 235 -497
46 -18 76 -22 171 -23 108 0 119 2 181 31 37 18 85 48 107 69 l41 37 -28 24
c-16 13 -32 24 -36 24 -4 0 -29 -16 -55 -35 -75 -55 -115 -68 -210 -68 -91 0
-138 14 -197 59 -63 48 -113 165 -113 267 l0 47 331 0 331 0 -7 78 c-13 161
-49 257 -125 333 -78 78 -218 113 -340 86z m206 -101 c91 -42 145 -131 160
-262 l7 -54 -283 0 -283 0 5 63 c7 87 41 159 99 211 56 51 92 64 179 65 49 1
78 -5 116 -23z"/>
<path d="M8616 3629 c-62 -10 -100 -25 -153 -61 -77 -52 -115 -152 -93 -250
13 -65 42 -108 93 -141 49 -32 100 -44 268 -61 205 -21 249 -51 249 -171 0
-48 -5 -68 -25 -97 -82 -122 -388 -126 -536 -8 l-36 29 -33 -34 -32 -33 43
-32 c191 -140 528 -132 657 15 106 121 73 316 -63 376 -41 18 -135 33 -265 44
-156 13 -220 54 -228 148 -7 91 37 155 127 186 88 29 277 4 349 -47 l29 -21
33 34 33 34 -34 20 c-53 33 -134 60 -207 71 -77 11 -107 11 -176 -1z"/>
<path d="M9620 3627 c-197 -44 -302 -235 -287 -517 14 -246 106 -384 286 -426
152 -36 329 6 419 99 l31 32 -35 24 -35 24 -27 -21 c-93 -75 -184 -100 -293
-83 -145 24 -234 130 -246 297 l-6 74 327 0 326 0 0 75 c0 253 -126 412 -342
429 -35 3 -88 0 -118 -7z m195 -96 c90 -41 143 -114 164 -226 20 -106 50 -95
-270 -95 l-282 0 5 63 c3 34 16 86 28 115 26 60 100 133 152 149 55 18 158 15
203 -6z"/>
<path d="M10714 3630 c-60 -13 -103 -33 -156 -73 l-48 -37 0 50 0 50 -50 0
-50 0 0 -470 0 -470 50 0 50 0 0 323 c0 381 4 405 79 477 54 53 102 70 197 70
120 0 202 -55 239 -159 12 -36 15 -104 15 -377 l0 -334 51 0 50 0 -3 353 c-3
315 -6 357 -23 402 -25 68 -113 154 -180 177 -61 21 -166 30 -221 18z"/>
<path d="M12315 3629 c-76 -11 -155 -50 -195 -96 l-31 -35 27 -29 c34 -35 41
-36 66 -4 11 14 40 37 66 52 41 24 60 28 148 31 212 8 294 -66 294 -264 l0
-72 -214 -4 -213 -3 -69 -35 c-81 -42 -119 -89 -136 -172 -9 -45 -9 -71 0
-115 32 -153 157 -224 371 -210 109 7 149 19 206 62 25 19 47 35 50 35 3 0 5
-20 5 -45 l0 -45 45 0 46 0 -3 378 -3 378 -26 49 c-30 59 -91 109 -160 129
-65 20 -199 27 -274 15z m375 -579 c0 -125 -15 -178 -65 -226 -52 -50 -111
-68 -225 -68 -179 1 -250 54 -250 184 0 60 18 106 53 138 47 44 89 51 295 52
l192 0 0 -80z"/>
<path d="M13439 3630 c-144 -24 -247 -116 -300 -266 -29 -82 -37 -273 -15
-367 39 -167 136 -274 281 -312 151 -39 297 -3 393 98 l33 34 -31 27 -32 26
-40 -36 c-62 -56 -120 -77 -208 -77 -95 0 -163 28 -221 90 -55 60 -78 117 -92
223 -22 177 19 329 109 409 57 50 119 71 208 71 82 0 153 -28 200 -79 37 -38
45 -38 80 -2 l27 28 -48 43 c-62 54 -104 76 -178 89 -65 12 -98 12 -166 1z"/>
<path d="M14325 3629 c-75 -11 -150 -48 -195 -94 l-34 -35 33 -34 33 -34 31
34 c49 56 99 77 201 82 220 11 306 -63 306 -265 l0 -73 -188 0 c-205 0 -272
-11 -341 -54 -48 -31 -79 -73 -97 -133 -41 -135 17 -270 139 -324 45 -20 68
-23 177 -24 144 0 190 11 255 60 25 19 47 35 50 35 3 0 5 -20 5 -45 l0 -45 45
0 46 0 -3 378 -3 377 -30 54 c-35 63 -87 105 -157 126 -64 19 -198 26 -273 14z
m375 -579 c0 -125 -15 -178 -65 -226 -54 -52 -111 -69 -237 -68 -81 1 -104 5
-144 25 -68 34 -88 65 -92 148 -4 74 7 108 51 149 47 44 88 51 295 52 l192 0
0 -80z"/>
<path d="M15410 3627 c-111 -26 -199 -95 -243 -190 -65 -138 -63 -447 3 -577
31 -60 102 -127 168 -158 50 -24 70 -27 157 -27 87 0 107 4 156 26 157 74 219
201 219 454 0 194 -31 296 -117 381 -79 79 -225 118 -343 91z m172 -87 c95
-27 168 -121 189 -245 15 -88 6 -282 -16 -353 -20 -66 -72 -125 -139 -159 -69
-35 -169 -36 -239 -3 -61 29 -119 95 -141 162 -22 68 -32 252 -18 342 20 128
84 218 178 251 47 17 135 19 186 5z"/>
<path d="M13425 2450 c-25 -50 -56 -115 -70 -145 l-24 -55 59 0 58 0 48 113
c26 61 53 127 61 145 l13 32 -50 0 -50 0 -45 -90z"/>
</g>
</svg>
